<?xml version="1.0" encoding="utf-8"?>
<!-- Generator: Adobe Illustrator 22.0.0, SVG Export Plug-In . SVG Version: 6.00 Build 0)  -->
<svg version="1.1" xmlns="http://www.w3.org/2000/svg" xmlns:xlink="http://www.w3.org/1999/xlink" x="0px" y="0px"
	 viewBox="0 0 1024 1024" style="enable-background:new 0 0 1024 1024;" xml:space="preserve">
<style type="text/css">
	.st0{display:none;}
	.st1{display:inline;}
	.st2{clip-path:url(#SVGID_2_);fill:#FFFFFF;}
	.st3{fill:#B00000;}
	.st4{display:inline;fill:#B00000;}
	.st5{fill:#FFFFFF;}
	.st6{display:inline;fill:none;stroke:#0000FF;stroke-width:2;stroke-miterlimit:10;}
	.st7{display:inline;fill:none;stroke:#0000FF;stroke-miterlimit:10;}
</style>
<g id="Background" class="st0">
	<rect class="st1" width="1024" height="1024"/>
	<g class="st1">
		<defs>
			<circle id="SVGID_1_" cx="512" cy="512" r="512"/>
		</defs>
		<clipPath id="SVGID_2_">
			<use xlink:href="#SVGID_1_"  style="overflow:visible;"/>
		</clipPath>
		<rect x="2.8" class="st2" width="1024" height="1024"/>
	</g>
</g>
<g id="Logo" >
	<path id="mongtiengioi.com_2_" class="st3" d="M436.8,599.9h4.4v2.5c1.6-1.9,3.5-2.9,5.7-2.9c1.2,0,2.2,0.2,3,0.7
		c0.9,0.5,1.6,1.2,2.1,2.2c0.8-1,1.7-1.7,2.6-2.2c0.9-0.5,1.9-0.7,3-0.7c1.3,0,2.5,0.3,3.4,0.8c0.9,0.5,1.6,1.3,2.1,2.4
		c0.3,0.8,0.5,2,0.5,3.8v11.7h-4.8v-10.4c0-1.8-0.2-3-0.5-3.5c-0.4-0.7-1.1-1-2.1-1c-0.7,0-1.3,0.2-1.9,0.6c-0.6,0.4-1,1-1.3,1.8
		c-0.3,0.8-0.4,2.1-0.4,3.8v8.8h-4.8v-10c0-1.8-0.1-2.9-0.3-3.4c-0.2-0.5-0.4-0.9-0.8-1.2c-0.4-0.3-0.9-0.4-1.5-0.4
		c-0.7,0-1.4,0.2-2,0.6c-0.6,0.4-1,1-1.3,1.7c-0.3,0.8-0.4,2-0.4,3.8v8.9h-4.8V599.9z M467.3,608.8c0-1.6,0.4-3.2,1.2-4.7
		c0.8-1.5,1.9-2.6,3.4-3.4c1.4-0.8,3.1-1.2,4.9-1.2c2.8,0,5,0.9,6.8,2.7c1.8,1.8,2.6,4.1,2.6,6.8c0,2.8-0.9,5-2.7,6.9
		c-1.8,1.8-4,2.7-6.7,2.7c-1.7,0-3.3-0.4-4.8-1.1c-1.5-0.8-2.7-1.9-3.5-3.3C467.7,612.6,467.3,610.9,467.3,608.8z M472.3,609
		c0,1.8,0.4,3.2,1.3,4.2c0.9,1,1.9,1.4,3.2,1.4c1.3,0,2.3-0.5,3.2-1.4c0.9-1,1.3-2.4,1.3-4.2c0-1.8-0.4-3.2-1.3-4.1
		c-0.9-1-1.9-1.4-3.2-1.4c-1.3,0-2.3,0.5-3.2,1.4C472.7,605.8,472.3,607.2,472.3,609z M506.5,618.1h-4.8v-9.3c0-2-0.1-3.2-0.3-3.8
		c-0.2-0.6-0.5-1-1-1.3c-0.5-0.3-1-0.5-1.7-0.5c-0.8,0-1.6,0.2-2.2,0.7c-0.7,0.5-1.1,1.1-1.4,1.8c-0.2,0.8-0.4,2.2-0.4,4.2v8.3h-4.8
		v-18.2h4.5v2.7c1.6-2.1,3.6-3.1,6-3.1c1.1,0,2,0.2,2.9,0.6c0.9,0.4,1.5,0.9,2,1.5c0.5,0.6,0.8,1.3,0.9,2c0.2,0.8,0.3,1.8,0.3,3.2
		V618.1z M511,619.3l5.5,0.7c0.1,0.6,0.3,1.1,0.6,1.3c0.5,0.3,1.2,0.5,2.2,0.5c1.3,0,2.2-0.2,2.8-0.6c0.4-0.3,0.7-0.7,1-1.2
		c0.1-0.4,0.2-1.1,0.2-2.2v-2.7c-1.4,2-3.3,3-5.5,3c-2.4,0-4.4-1-5.8-3.1c-1.1-1.6-1.7-3.7-1.7-6.1c0-3.1,0.7-5.4,2.2-7
		c1.5-1.6,3.3-2.4,5.5-2.4c2.3,0,4.1,1,5.6,3v-2.6h4.5v16.4c0,2.2-0.2,3.8-0.5,4.8c-0.4,1.1-0.9,1.9-1.5,2.5
		c-0.6,0.6-1.5,1.1-2.6,1.4c-1.1,0.3-2.4,0.5-4.1,0.5c-3.1,0-5.3-0.5-6.6-1.6c-1.3-1.1-1.9-2.4-1.9-4
		C510.9,619.8,510.9,619.6,511,619.3z M515.3,608.6c0,1.9,0.4,3.4,1.1,4.3c0.7,0.9,1.7,1.3,2.8,1.3c1.2,0,2.2-0.5,3-1.4
		c0.8-0.9,1.2-2.3,1.2-4.1c0-1.9-0.4-3.3-1.2-4.2c-0.8-0.9-1.8-1.4-3-1.4c-1.2,0-2.1,0.4-2.9,1.3
		C515.6,605.4,515.3,606.8,515.3,608.6z M541.2,599.9v3.8H538v7.3c0,1.5,0,2.4,0.1,2.6c0.1,0.2,0.2,0.4,0.4,0.6
		c0.2,0.2,0.5,0.2,0.8,0.2c0.4,0,1.1-0.2,1.9-0.5l0.4,3.7c-1.1,0.5-2.4,0.7-3.8,0.7c-0.9,0-1.7-0.1-2.4-0.4
		c-0.7-0.3-1.2-0.7-1.5-1.1c-0.3-0.5-0.6-1.1-0.7-1.9c-0.1-0.6-0.2-1.7-0.2-3.4v-8h-2.2v-3.8h2.2v-3.6l4.8-2.8v6.4H541.2z
		 M544.6,597.4V593h4.8v4.5H544.6z M544.6,618.1v-18.2h4.8v18.2H544.6z M564.9,612.3l4.8,0.8c-0.6,1.8-1.6,3.1-2.9,4
		c-1.3,0.9-3,1.4-5,1.4c-3.2,0-5.5-1-7-3.1c-1.2-1.7-1.8-3.8-1.8-6.3c0-3,0.8-5.4,2.4-7.1c1.6-1.7,3.6-2.6,6-2.6
		c2.7,0,4.9,0.9,6.4,2.7c1.6,1.8,2.3,4.5,2.2,8.2h-12.1c0,1.4,0.4,2.5,1.2,3.3c0.7,0.8,1.7,1.2,2.8,1.2c0.8,0,1.4-0.2,1.9-0.6
		C564.3,613.9,564.7,613.3,564.9,612.3z M565.2,607.5c0-1.4-0.4-2.5-1.1-3.2c-0.7-0.7-1.5-1.1-2.5-1.1c-1.1,0-1.9,0.4-2.6,1.2
		s-1,1.8-1,3.1H565.2z M590.5,618.1h-4.8v-9.3c0-2-0.1-3.2-0.3-3.8c-0.2-0.6-0.5-1-1-1.3c-0.5-0.3-1-0.5-1.7-0.5
		c-0.8,0-1.6,0.2-2.2,0.7c-0.7,0.5-1.1,1.1-1.4,1.8c-0.2,0.8-0.4,2.2-0.4,4.2v8.3h-4.8v-18.2h4.5v2.7c1.6-2.1,3.6-3.1,6-3.1
		c1.1,0,2,0.2,2.9,0.6c0.9,0.4,1.5,0.9,2,1.5c0.5,0.6,0.8,1.3,0.9,2c0.2,0.8,0.3,1.8,0.3,3.2V618.1z M595,619.3l5.5,0.7
		c0.1,0.6,0.3,1.1,0.6,1.3c0.5,0.3,1.2,0.5,2.2,0.5c1.3,0,2.2-0.2,2.8-0.6c0.4-0.3,0.7-0.7,1-1.2c0.1-0.4,0.2-1.1,0.2-2.2v-2.7
		c-1.4,2-3.3,3-5.5,3c-2.4,0-4.4-1-5.8-3.1c-1.1-1.6-1.7-3.7-1.7-6.1c0-3.1,0.7-5.4,2.2-7c1.5-1.6,3.3-2.4,5.5-2.4
		c2.3,0,4.1,1,5.6,3v-2.6h4.5v16.4c0,2.2-0.2,3.8-0.5,4.8c-0.4,1.1-0.9,1.9-1.5,2.5c-0.6,0.6-1.5,1.1-2.6,1.4
		c-1.1,0.3-2.4,0.5-4.1,0.5c-3.1,0-5.3-0.5-6.6-1.6c-1.3-1.1-1.9-2.4-1.9-4C594.9,619.8,595,619.6,595,619.3z M599.3,608.6
		c0,1.9,0.4,3.4,1.1,4.3c0.7,0.9,1.7,1.3,2.8,1.3c1.2,0,2.2-0.5,3-1.4c0.8-0.9,1.2-2.3,1.2-4.1c0-1.9-0.4-3.3-1.2-4.2
		c-0.8-0.9-1.8-1.4-3-1.4c-1.2,0-2.1,0.4-2.9,1.3C599.6,605.4,599.3,606.8,599.3,608.6z M616.9,597.4V593h4.8v4.5H616.9z
		 M616.9,618.1v-18.2h4.8v18.2H616.9z M625.5,608.8c0-1.6,0.4-3.2,1.2-4.7c0.8-1.5,1.9-2.6,3.4-3.4c1.4-0.8,3.1-1.2,4.9-1.2
		c2.8,0,5,0.9,6.8,2.7s2.6,4.1,2.6,6.8c0,2.8-0.9,5-2.7,6.9c-1.8,1.8-4,2.7-6.7,2.7c-1.7,0-3.3-0.4-4.8-1.1
		c-1.5-0.8-2.7-1.9-3.5-3.3C625.9,612.6,625.5,610.9,625.5,608.8z M630.5,609c0,1.8,0.4,3.2,1.3,4.2c0.9,1,1.9,1.4,3.2,1.4
		s2.3-0.5,3.2-1.4c0.9-1,1.3-2.4,1.3-4.2c0-1.8-0.4-3.2-1.3-4.1c-0.9-1-1.9-1.4-3.2-1.4s-2.3,0.5-3.2,1.4
		C630.9,605.8,630.5,607.2,630.5,609z M648.1,597.4V593h4.8v4.5H648.1z M648.1,618.1v-18.2h4.8v18.2H648.1z M657.9,618.1v-4.8h4.8
		v4.8H657.9z M683.6,605.3l-4.8,0.9c-0.2-1-0.5-1.7-1.1-2.1c-0.6-0.5-1.3-0.7-2.2-0.7c-1.2,0-2.2,0.4-2.9,1.2
		c-0.7,0.8-1.1,2.2-1.1,4.2c0,2.2,0.4,3.7,1.1,4.6c0.7,0.9,1.7,1.3,2.9,1.3c0.9,0,1.7-0.3,2.2-0.8c0.6-0.5,1-1.4,1.2-2.7l4.7,0.8
		c-0.5,2.2-1.4,3.8-2.8,4.9c-1.4,1.1-3.3,1.7-5.6,1.7c-2.7,0-4.8-0.8-6.4-2.5c-1.6-1.7-2.4-4-2.4-7c0-3,0.8-5.4,2.4-7
		c1.6-1.7,3.7-2.5,6.5-2.5c2.2,0,4,0.5,5.3,1.4C682.1,601.9,683,603.3,683.6,605.3z M686.1,608.8c0-1.6,0.4-3.2,1.2-4.7
		c0.8-1.5,1.9-2.6,3.4-3.4c1.4-0.8,3.1-1.2,4.9-1.2c2.8,0,5,0.9,6.8,2.7s2.6,4.1,2.6,6.8c0,2.8-0.9,5-2.7,6.9
		c-1.8,1.8-4,2.7-6.7,2.7c-1.7,0-3.3-0.4-4.8-1.1c-1.5-0.8-2.7-1.9-3.5-3.3C686.5,612.6,686.1,610.9,686.1,608.8z M691.1,609
		c0,1.8,0.4,3.2,1.3,4.2c0.9,1,1.9,1.4,3.2,1.4s2.3-0.5,3.2-1.4c0.9-1,1.3-2.4,1.3-4.2c0-1.8-0.4-3.2-1.3-4.1
		c-0.9-1-1.9-1.4-3.2-1.4s-2.3,0.5-3.2,1.4C691.5,605.8,691.1,607.2,691.1,609z M708.4,599.9h4.4v2.5c1.6-1.9,3.5-2.9,5.7-2.9
		c1.2,0,2.2,0.2,3,0.7c0.9,0.5,1.6,1.2,2.1,2.2c0.8-1,1.7-1.7,2.6-2.2c0.9-0.5,1.9-0.7,3-0.7c1.3,0,2.5,0.3,3.4,0.8
		c0.9,0.5,1.6,1.3,2.1,2.4c0.3,0.8,0.5,2,0.5,3.8v11.7h-4.8v-10.4c0-1.8-0.2-3-0.5-3.5c-0.4-0.7-1.1-1-2.1-1c-0.7,0-1.3,0.2-1.9,0.6
		c-0.6,0.4-1,1-1.3,1.8c-0.3,0.8-0.4,2.1-0.4,3.8v8.8h-4.8v-10c0-1.8-0.1-2.9-0.3-3.4c-0.2-0.5-0.4-0.9-0.8-1.2
		c-0.4-0.3-0.8-0.4-1.5-0.4c-0.7,0-1.4,0.2-2,0.6c-0.6,0.4-1,1-1.3,1.7c-0.3,0.8-0.4,2-0.4,3.8v8.9h-4.8V599.9z"/>
	<g>
		<g>
			<path class="st3" d="M196.4,490.9c-1.3,2.6-2.5,5.2-3.6,7.7c0.1,3.8,0.5,7.6,1.3,11.5C194.9,503.7,195.7,497.3,196.4,490.9z"/>
		</g>
		<g>
			<path class="st3" d="M262.1,477.6c0.1-0.9,0.2-1.7,0.5-2.6c0-0.2,0-0.4,0-0.6c-0.7,0.2-1.4,0.4-2.1,0.5
				C261.1,475.8,261.6,476.7,262.1,477.6z"/>
		</g>
		<g>
			<path class="st3" d="M789.8,539.2c0.5-3.2,1-6.5,1.6-9.7c-0.7,3.5-1.5,6.9-2.3,10.3C789.3,539.6,789.6,539.4,789.8,539.2z"/>
		</g>
		<g>
			<path class="st3" d="M229.5,535.1c1.7-3.2,3.2-6.3,4.4-9.3c-1.3,0.3-2.8,0.5-4.4,0.5c-0.7,0-1.4,0-2.2-0.1
				c-4.3,6.3-6.5,12-6.5,17.2c0,0.9,0,1.5,0.1,2.1C222.7,544.5,225.8,541.7,229.5,535.1z"/>
		</g>
		<g>
			<path class="st3" d="M241.5,597C241.5,596.9,241.5,596.9,241.5,597c13.4-11.8,30.1-21.6,49.7-29c-1-3.8-1.8-7.6-2.6-11.4
				l-1.9,5.4c0,0,0,0.1-0.1,0.2c-2.4,6.5-8.2,10.5-15.3,10.5c-3.9,0-7.6-1.1-11-3.1c-5.7-3.5-7.5-7.9-8-11l0-0.2
				c-0.1-0.5-0.1-1-0.1-1.5v-0.2c0,0,0,0,0,0c-5.8,6.8-12.7,11.4-20.3,13.7c0.1,2.1-0.2,4.3-1,6.5c-1.1,2.9-3.3,6.1-7.4,10.5
				c-0.2,0.2-0.4,0.4-0.6,0.6c2,7.5,3.9,15.1,6,22.6C232.3,606,236.5,601.4,241.5,597z"/>
		</g>
		<g>
			<path class="st3" d="M309.3,614.2c-3.3-6-6.2-12-8.8-18.1c-8.6,3.1-16.4,6.6-23.1,10.5c-10.3,5.9-18.4,12.3-24.4,19
				c0,0-0.1,0.1-0.1,0.1c-2.2,2.4-3.9,4.8-5.1,7.3c4.4,8.3,9.2,16.2,14.2,23.8c1.5,0.2,3.2,0.3,4.9,0.3c10.8,0,21.5-2.1,31.8-6.2
				c8.3-3.3,16.6-8.2,24.7-14.5C318.3,629.3,313.6,621.9,309.3,614.2z"/>
		</g>
		<g>
			<path class="st3" d="M782.2,577.1c-1.6,0.7-3.3,1.3-4.9,1.9c-2.5,6.7-5.1,13.2-8,19.6c0.2-0.1,0.5-0.2,0.6-0.3
				c1.1-0.5,2-1,2.8-1.3c5.7-5.3,11.6-13.1,17.7-23.4c0-0.1,0.1-0.1,0.1-0.2c-2.6,1.3-5.2,2.5-7.9,3.6c-0.2,0.3-0.3,0.7-0.5,1
				C782.1,577.7,782.2,577.4,782.2,577.1z"/>
		</g>
		<g>
			<path class="st3" d="M213.7,448.4c0.9-0.7,1.9-1.5,3.1-2.4c0.5-2.8,1.1-5.7,1.6-8.5c-0.9-0.1-1.8-0.3-2.7-0.4
				C215,440.8,214.3,444.6,213.7,448.4z"/>
		</g>
		<g>
			<path class="st3" d="M226.5,395.7c-2.3,8.6-4.6,17.1-6.9,25.7c0.9,0.1,1.8,0.2,2.7,0.3C223.5,413,229.9,405.3,226.5,395.7z"/>
		</g>
		<g>
			<path class="st3" d="M777.9,398.9c2.1,8.5,4.4,16.9,6.7,25.3c1-0.3,2-0.5,3.1-0.8C784.5,415.2,781,407.1,777.9,398.9z"/>
		</g>
		<g>
			<path class="st3" d="M205.7,371.3c9.4-4.4,8-17.8,21.3-20.9c-2.4,5.6-4.1,9.6-5.7,13.6c0.3,0.2,0.6,0.3,0.9,0.5
				c1.5-2,3-4,5.8-7.7c-0.7,6.2-1.1,10.1-1.7,15.7c10.2-11,13-25,25.2-33.9c-10.5,34.8-21.7,68.8-29,103.3c0.6-0.4,1.2-0.8,1.8-1.3
				c0.1-0.1,0.2-0.1,0.3-0.2c3.4-2.2,6.5-4.2,9.3-6.1c4.7-3.1,6.7-4.2,8.8-4.7l1.1-0.3c0.7-0.2,1.5-0.3,2.2-0.3
				c1.8,0,3.6,0.5,5.1,1.6l1,0.7l0.7,0.5l0.6,0.4c1.3,0.9,2.3,2.1,3,3.6l0.3,0.6c1.1,2.3,3.5,6.3,8.7,12.8c0.3-1.6,0.6-3.3,0.9-4.9
				c2.4-12.3,9.3-23.8,14.1-35.7c1.1-2.6,4.8-5.2,0.4-8.2c-0.6-0.4,1-4.4,2-6.5c3-6.6,6.1-13.2,9.3-19.8c0.8-1.6,2-2.9,3.1-4.3
				c0.9,0.4,1.9,0.9,2.8,1.3c-2.2,6.1-4.4,12.2-6.6,18.3c1.6,0.1,3.4,0.1,5.2,0.2c-0.2,1.2,0,2.6-0.5,3.7
				c-5.6,12.1-12.5,23.8-16.9,36.3c-3.3,9.5-6.1,19.1-8.2,28.8l0.3,1.1l0.3,1.4c0.3,1.6,0.3,3.2-0.2,4.7c0.9-0.3,1.9-0.6,3-0.8
				c1.5-9.9,2.6-19.8,5.1-29.5c1.9-7.5,5.7-14.8,9.6-21.6c8-13.7,16.8-27,25-40.7c3-4.9,10.4-8.8,4.8-16.1c-0.3-0.4,0.3-1.6,0.7-2.3
				c6.2-11.6,14.4-21.2,26-28.2c10-6,19.4-13.1,30.6-20.7c-5.8,2.3-9.8,3.9-13.7,5.5c-0.5-1.1-0.9-2.2-1.4-3.3
				c14-6.9,28-13.8,41.7-20.6c-2.6,0.2-5.5,0.5-8.4,0.7c-0.1-1-0.1-1.9-0.2-2.9c32.4-5,63.9-19,97.7-9.6
				c-17.4-14.7-38.8-6.6-58.9-10.4c3.5-1.9,6.9-3.9,10.4-5.8c-4.4-0.9-8.3-0.3-12-0.4c-1.1,0-2.4-1.6-3.2-2.7
				c-0.2-0.3,0.9-2.2,1.7-2.4c5-1.4,10.1-3.3,15.3-3.8c7.5-0.7,15.3,0.9,22.6-0.6c20.4-4,39.7-4,56.7,8.9c5.5,4.1,10.9,8.4,15.9,13
				c2.6,2.4,6.3,6.1,5.9,8.6c-1.6,9.3,4.7,12,10.5,15.7c4.3,2.7,8.3,6,12.3,9c22.4,16.6,48.2,23.6,76.1,23.8
				c17.6,0.1,24.7-8.5,30-22.5c3.1-8.2,5.2-16.8,7.7-25.2c1.5-4.9,4.2-10,4.1-14.8c-0.3-13.7-5.3-25.3-16.2-34.3
				c-6.7-5.5-11.9-12.9-18.2-19c-4.9-4.8-9.7-11-15.9-13.1c-22.1-7.8-44.3-15.7-67.2-20.7c-20.5-4.5-42.1-5.1-63.1-7.6
				c-27-3.2-54-2.2-80.9,2.6c-27.6,5-54.4,13.5-79.1,27.1c-18,9.8-34.5,22.3-51.7,33.6c0.4,0.8,0.9,1.5,1.3,2.3
				c25.4-17.1,50.5-34.8,81.5-40.5c-74.4,26.4-122.8,80.8-160.3,145.7c1.3,2.5,1.7,4.9,0.8,6.6C214.2,356.4,209.8,363.8,205.7,371.3
				z"/>
		</g>
		<g>
			<path class="st3" d="M238.6,681.9c2.7,5.3,6,10.3,9.9,14.9c2.7,3.3,6.3,7.1,11.6,3.5c-2.7-4-5.3-8-8-12
				C247.2,686.8,242.7,684.6,238.6,681.9z"/>
		</g>
		<g>
			<path class="st3" d="M745.4,328c-4-3-7.9-5.9-11.9-8.9C734.4,328.6,734.4,328.6,745.4,328z"/>
		</g>
		<g>
			<path class="st3" d="M767,628.4c-4.9,0-8.6-1.4-11.2-3.5c-31.9,54.9-80.8,95.6-147.3,122.2c7.5-2.1,15.1-3.9,22.4-6.3
				c6.4-2.1,12.5-5.1,19-6.9c-26.8,14.4-54.9,24.5-85.2,27c-6.4,0.2-12.9-0.1-19.3,0.6c-33.5,3.8-65.4-1.8-96-13.5
				c-41.6-15.8-75.4-43-107.4-72.4c-1.6-1.5-2.8-3.3-4-5.3c-2.7,1.8-5.4,3.4-8.3,5c-8.1,4.6-16.4,8.2-24.8,10.8
				c14.1,13,28.2,26.1,42.2,39.1c-18-9.9-34.1-22.2-47.4-37.6c-4,1-8,1.8-12.1,2.4c36.6,40.9,83.7,70.2,138.4,91.3
				c-22.7-3.9-43.5-12.2-63.9-21.7c14.9,8.4,30.4,15.4,45.7,22.9c4,1.9,7.4,4.8,10.9,7.5c2.3,1.8,3.8,5.3,6.3,5.8
				c15.5,3.3,30.9,7.5,46.7,8.6c61.6,4.2,120.2-9.5,176.3-36.7c51.7-25.1,94.2-61.6,127.8-107.5c14.4-19.7,25.8-41,34.3-63.3
				C794,618.3,780.2,628.4,767,628.4z M416,763.3c-21.8-8.5-44.2-15.9-62.8-30.5c0.5-0.9,1-1.9,1.4-2.8
				c20.7,10.5,41.5,20.9,62.2,31.4C416.6,762,416.3,762.6,416,763.3z"/>
		</g>
		<g>
			<path class="st3" d="M806.7,523.5c-2.2,0.4-4.4,0.7-6.3,1c-1.5,0.2-2.9,0.4-4.3,0.6c-0.2,3.2-0.5,6.4-0.9,9.6
				C799,531.4,802.8,527.6,806.7,523.5z"/>
		</g>
		<g>
			<path class="st3" d="M394.1,712.7c-16.2-16-32.7-31.5-47.8-48.2c-1.9,1.4-3.7,2.8-5.7,4.1c8.3,7.1,16.5,14.3,24.9,21.3
				C374.9,697.6,384.6,705.1,394.1,712.7z"/>
		</g>
		<g>
			<path class="st3" d="M827.2,491c0-0.5,0-1,0-1.5c-3.8-1.2-7-3.9-8.9-7.7c-1.5-3-2.2-6.6-2.2-11.1c0-7.5,1.2-15.1,3.6-22.6
				c-1.9-0.3-4-0.5-6-0.5c-4.8,0-9.7,0.6-14.7,1.7c2.9,13.6,4.2,25.1,2.3,29.5c-1.9-9.5-3.5-19.2-5.6-28.7c-1.5,0.4-2.9,0.9-4.4,1.4
				c0.4,2.2,0.8,4.4,1.2,6.6c1.8,11.4,2.9,22.9,3.4,34.5c12.4-0.1,22.7-0.4,30.8-1C826.8,491.4,827,491.2,827.2,491z"/>
		</g>
		<g>
			<path class="st3" d="M818.3,420.7c-9.7-36.6-27.1-70.7-50.4-103c30.9,50.4,41.5,82,45.5,102.8C815,420.6,816.7,420.6,818.3,420.7
				z"/>
		</g>
		<g>
			<path class="st3" d="M791.9,422.5c6-1.1,11.6-1.8,16.9-2c-2.6-6.9-5.1-13.5-7.4-20.1c-1.1-3.1-0.1-8.3-2.1-9.6
				c-8-5.1-6.8-15.4-14.3-21.6c-8.6-7.1-13.9-18.1-20.2-27.8c-3.9-6-9.2-8.5-18.2-8.5c16.5,22,28.4,45.2,38.2,69.6
				C787.3,408.5,789.6,415.4,791.9,422.5z"/>
		</g>
	</g>
	<g>
		<path class="st3" d="M848.9,506.3c-12.4,31.1-26.4,57.7-41.7,79.2c-16,22.8-29.1,33.9-40.2,33.9c-6.6,0-7.3-3.5-7.3-4.9
			c0-2.9,3.6-4.1,5.2-4.6c3.9-1.4,6.9-2.5,8.9-3.5c1.8-0.8,3.1-1.5,4-1.9c6.6-5.9,13.5-14.7,20.3-26.4c5.4-9.1,10.9-20.1,16.3-32.7
			c-9.2,8.4-18.6,15.1-28,20c-12.7,6.5-25.8,9.8-38.9,9.8c-14.5,0-26.2-4-34.9-11.9c-8.7-8.1-13.1-18.6-13.1-31.1
			c0-6.5,0.9-12.9,2.6-19.2c1.7-6.2,4-12.1,6.9-17.5c6.4-11.8,14.7-22.7,24.9-32.4c10.1-9.7,22.3-17.8,36-23.9
			c7.6-3.5,15.1-6.1,22.3-7.5c7.2-1.4,13.9-2.1,19.9-2.1c5.2,0,10,0.5,14.5,1.4c3.5,0.7,6.6,1.6,9.4,2.7l3.5-6.1l0.1-0.1l0.1-0.1
			c3.3-4.5,7.5-6.8,12.5-6.8c2.4,0,4.2,0.3,5.5,0.9c1.9,0.8,3.1,2.4,3.1,4.3c0,1.2-0.6,2-2.2,3.7c-1,1.1-2.5,2.7-4.6,4.7l-4.8,4.8
			l-1.1,1.1l-0.1,0.1c1.3,1,2.5,2,3.6,3.1c2.6,2.6,3.2,3.6,3.2,4.8c0,1.1-0.1,1.4-4.1,6.1c-2.3,2.8-4.6,5.6-6.8,8.5
			c-6.2,7.9-8.1,11.4-8.8,13l0.5,0.5v1.1c0,2.3-1.6,3.9-3.9,3.9c-2.3,0-4.2-1.2-5.3-3.4c-0.8-1.7-1.3-4-1.3-7c0-9.5,2.2-19,6.4-28.5
			c-5.4-2.4-11.5-3.6-17.9-3.6c-15.1,0-30.6,4.9-46.1,14.5c-15.3,9.3-28.1,21.3-38.3,35.5c-5.1,7.2-8.8,14.2-11.1,20.8
			c-2.3,6.5-3.5,12.6-3.5,18.4c0,10.5,3.4,18.9,10.5,25.7c7,6.8,16.7,10.2,28.8,10.2c19.6,0,41.4-13.5,64.7-40l0,0l0,0
			c2.2-2.4,4.1-4.5,5.5-6.2c1.3-1.6,2.3-3,2.9-4l1-3c-11.7,2.3-21.5,4.1-29.1,5.2c-8.8,1.3-14.9,2-18.5,2c-2.9,0-5.5-1.4-7.7-4.1
			c-2.1-2.6-3.2-5.8-3.2-9.7c0-2.1,1.5-3.6,3.6-3.6h0.1l0.1,0l15.2,1.5c18.5,0,33.1-0.5,43.3-1.4c1.4-3.6,3.5-5.4,6.1-5.4
			c1.3,0,2.7,0.4,4.3,1.2c1.1,0.5,2.4,1.2,3.8,2.1l6.9-1.1l0.2,0h0.2c3.5,0,4.7,2.2,4.7,4.2C858.2,503.9,855.3,505.1,848.9,506.3z
			 M884.7,549.1h-0.9l-0.7,0.5c-0.7,0.5-1.5,1.2-2.4,2c-0.7,0.6-2,1.7-3.9,3.3c-2.6,2.1-3.9,2.3-4.4,2.3c0,0-0.1,0-0.1,0
			c-0.1-0.1-0.7-0.9-0.7-3.9c0-2.8,0.5-6.5,1.6-11.3c1.1-4.8,3-11.1,5.5-18.6c2.4-7,4.9-13.5,7.4-19.4c2.5-5.8,5.1-10.9,7.8-15.3
			l0.5-0.9l-0.2-1c-1.2-5.7-9.7-5.7-12.4-5.7c-2.8,0-5.1,0.9-6.8,2.6c-0.5,0.5-1.3,1.5-2.7,4.3c-1,2-1.5,3.3-1.7,4.4
			c-10.4,23.7-15.7,43.1-15.7,57.7c0,5.4,1,9.4,2.9,12.2c2.1,3.1,5.4,4.7,9.6,4.7c2.6,0,6.4-1.5,12-4.8c6.1-3.6,8.8-6.5,8.8-9.5
			C888.4,550.6,886.9,549.1,884.7,549.1z M924.8,454.3c0.7,0,1.2,0,6.6-2.9c3.2-1.7,6.8-3.8,10.6-6c5.7-3.5,9.8-6.1,12.1-7.7
			c2.3-1.6,3.6-2.5,4.1-2.8l0.2-0.1l0.2-0.2c1.5-1.5,2.3-3.7,2.3-6.3c0-3.3-2-5.5-5.2-5.5c-1.2,0-2.2,0-18.3,12.3
			c-5.1,3.9-9.1,7-11.7,9.3c-4.1,3.5-4.7,4.7-4.7,6.1C921.2,453,923.1,454.3,924.8,454.3z M982.7,481.1c-2.8,0-5.1,0.9-6.8,2.6
			c-0.5,0.5-1.3,1.5-2.7,4.3c-1,2-1.5,3.3-1.7,4.4c-10.4,23.7-15.7,43.1-15.7,57.7c0,5.4,1,9.4,2.9,12.2c2.1,3.1,5.4,4.7,9.6,4.7
			c2.6,0,6.4-1.5,12-4.8c6.1-3.6,8.8-6.5,8.8-9.5c0-2.1-1.5-3.6-3.6-3.6h-0.9l-0.7,0.5c-0.7,0.5-1.5,1.2-2.4,2
			c-0.7,0.7-2,1.7-3.9,3.3c-2.6,2.1-3.9,2.3-4.4,2.3c0,0-0.1,0-0.1,0c-0.1-0.1-0.7-0.9-0.7-3.9c0-2.8,0.5-6.5,1.6-11.3
			c1.1-4.8,3-11.1,5.5-18.6c2.4-7,4.9-13.5,7.4-19.4c2.5-5.8,5.1-10.9,7.8-15.3l0.5-0.9l-0.2-1C993.9,481.1,985.5,481.1,982.7,481.1
			z M892.5,472.2c3.4,0,6.5-1.7,9.3-5c2.6-3.1,4.3-7.5,5.3-13.4l1.3-7.5l0-0.2v-0.2c0-3.8-2.8-3.9-3.1-3.9h-1.3l-0.8,1
			c-3.9,4.9-7.7,9.2-11.4,12.8c-3.6,3.5-7.1,6.4-10.2,8.6l-2.8,1.9l2.6,2.2C884.4,471,888.1,472.2,892.5,472.2z M1009.3,445.9v0.2
			l0,0.2l-1.3,7.5c-1,5.9-2.7,10.3-5.3,13.4c-2.8,3.3-5.9,5-9.3,5c-4.1,0-7.6-1.1-10.4-3.2c-0.2,0.4-0.4,0.8-0.6,1.2
			c-3.6,7.8-8,13.8-13.1,17.7c-1.8,1.4-3.7,2.7-5.5,3.7c0.7,0.8,1.1,1.8,1.1,3c0,6-4,6.5-5.2,6.5h-0.2l-0.2,0l-3.2-0.5
			c0,0.5,0.1,1,0.1,1.4c0.1,1.5,0.1,2.7,0.1,3.8c0,14.7-3.8,28-11.4,39.7l0,0l0,0c-7.8,11.7-17.7,17.6-29.5,17.6
			c-15.5,0-23.7-8.6-23.7-24.7c0-6.2,1.4-12.9,4.2-19.9c2.5-6.3,5.6-11.5,9.3-15.7c-1.5-3.3-2.3-7.3-2.3-11.8c0-5.7,2.4-11,7-15.5
			c4.7-4.6,10.4-6.9,17.2-6.9c11.6,0,19.8,5.7,24.4,16.9c0.1,0,0.2,0,0.3,0c3.1,0,6.7-2.4,10.5-7.2c4.2-5.3,8.2-12.6,11.9-21.9
			l0-0.1l0-0.1c1.6-3.5,3.4-6.7,6.3-6.7c1.8,0,3.4,1.1,4.2,2.9c0.5,1.3,0.8,2.9,0.8,5.1c0,1.5-0.2,3.1-0.5,4.9
			c2.4-1.9,5-4.1,7.7-6.7c3.6-3.6,7.5-7.9,11.4-12.8l0.8-1h1.3C1006.4,442,1009.3,442.1,1009.3,445.9z M919.3,516.1
			c-7.9,9.7-11.9,18.9-11.9,27.3c0,10.2,4.2,11.5,7.8,11.5c6.1,0,12.1-5.2,17.8-15.3c6-10.8,9.1-21.3,9.1-31c0-3.1-0.4-5.8-1.2-8
			c-4.5,1.2-9.3,3.9-14.6,8.3c0.6,0,0.8-0.1,0.9-0.1c2.3,0,3.9,1.6,3.9,3.9c0,1.1-0.4,4.7-6,4.7
			C923.3,517.3,921.4,516.9,919.3,516.1z M913.6,496.2c0,0.1,0,0.2,0,0.3c8.6-6.2,15-9.8,19.6-11c-2.1-3-5.2-4.4-9.5-4.4
			c-2.2,0-4,0.7-5.4,2.2c-1.6,1.7-2.8,3.8-3.6,6.1C914,491.9,913.6,494.2,913.6,496.2z M573.6,474.7c-0.7-1-0.8-2.3-0.3-3.9
			c0.4-1.1,0.8-2.5,14.2-11.8c0,0,0,0,0.1,0c3.5-2.3,6.5-4.3,9.4-6.2c4.4-2.9,5.4-3.3,6.1-3.5c0.2-0.1,0.4-0.1,0.6-0.1
			c0.5,0,1,0.2,1.5,0.5l0.7,0.5c0.4,0.3,0.7,0.6,0.9,1c2.2,4.6,6.5,10.7,12.8,18.3c0.3,0.3,0.5,0.7,0.6,1.1l0.4,1.9
			c0.2,0.9-0.1,1.8-0.7,2.4l-1.2,1.2c-0.5,0.5-1.1,0.7-1.8,0.7c-0.1,0-0.3,0-0.4,0c-1.3-0.2-2.9-1-5.1-2.4c-1.9-1.2-3.9-2.7-5.8-4.3
			c0,0-0.1-0.1-0.1-0.1c-2.2-2.1-3.9-3.9-5.3-5.5c-0.6-0.7-1.2-1.4-1.7-2c-19.6,13.6-20.6,13.6-21.8,13.6
			C574.8,476.2,573.9,475.3,573.6,474.7z M510.8,453.8c2.2,0.3,4.4,0.6,6.6,0.9c7.4,1,15.8,1.5,24.7,1.5h1c1.7,0,3.2-0.1,4.7-0.2
			c-0.1,0.1-0.3,0.3-0.4,0.4c-3.6,3.5-7.1,6.4-10.2,8.6c-0.7,0.5-1.1,1.2-1.1,2s0.3,1.6,0.9,2.1c2.9,2.5,6.6,3.8,11.1,3.8
			c3.4,0,6.5-1.7,9.3-5c2.6-3.1,4.3-7.5,5.3-13.4l0.8-4.6c1.4-1.8,2.1-4,2.1-6.5c0-6.5-4.2-13.2-12.4-19.8
			c-8.1-6.4-15.9-9.7-23.2-9.7c-5.2,0-6,2.4-6,3.9c0,1.1,0.7,2,1.7,2.4l14.1,5.5c0,0,0,0,0,0c4.4,1.6,7.9,3.3,10.2,5
			c2.7,2,2.7,3.7,2.7,4.3c0,6.2-11.2,7.6-20.6,7.6c-13,0-30.1-2-51-5.8c-20.9-3.9-46-9.5-74.6-16.7c-1.2-0.4-2.7-0.6-4.5-0.7
			c-1.7-0.1-3-0.1-4.1-0.1c-5.7,0-10.2,1.5-13.2,4.5c-3,3-4.5,7.4-4.5,13.2c0,8.4,6.5,16.5,19.2,24.1c12.2,7.2,24,10.8,35.2,10.8
			c7.3,0,8.9-2.8,8.9-5.2c0-1.7-1.2-3.6-4.4-3.6c0,0-0.1,0-0.1,0l-4.9,0.3c-0.3,0-0.6,0-0.9,0c-2.5,0-5.7-0.5-9.4-1.6
			c-4.3-1.2-10.1-3.8-17.2-7.7c-10.7-5.9-16.1-11.6-16.1-17c0-1.9,2.5-2.9,7.6-2.9c3.4,0,6.9,0.1,10.4,0.4c3.4,0.3,7.1,0.7,10.8,1.4
			c0,0,0,0,0.1,0c4.3,0.7,7.8,1.3,10.4,1.9c2.7,0.6,6.3,1.3,10.9,2.2l55.1,11.1c-6.4,2.9-13.5,9.7-21.5,20.5
			c-5.1,7-9.9,14.5-14.4,22.3c-4.5,7.8-8.5,16-12,24.4c-7.1,17-10.6,28.7-10.6,35.9c0,18.5,9.5,22.4,17.5,22.4
			c2.7,0,6.5-1.1,12.2-3.6c4.7-1.8,10-4.3,10-8.7c0-1.5-1.1-3.1-3.6-3.1c-0.4,0-0.9,0.1-1.3,0.3l-6.5,3.6c-3.9,2.2-7.7,3.3-11.2,3.3
			c-3.6,0-4.9-1.3-4.9-4.7c0-24.9,14.7-53.9,43.8-86.3l16.4-16.4c0.2-0.2,0.4-0.5,0.6-0.8c1.4-3.5,1.5-3.8,1.5-4.4
			C511.2,455.4,511.1,454.6,510.8,453.8z M693.2,486.3c-0.9-5.6-9-5.6-11.7-5.6h-1.3c-3.1,0-5.9,2.1-8.6,6.6
			c-0.4-0.2-0.8-0.3-1.3-0.3c-2.5,0-6.3,1.7-16.3,14c-3.5,4.3-7.1,9.2-10.9,14.3c-0.3,0.4-0.6,0.8-0.8,1.2
			c5.9-18.5,6.7-23.4,6.7-25.3c0-7.7-3.5-16.9-20.1-16.9c-6,0-6.5,3.8-6.5,4.9c0,1.9,1.3,3.8,4.1,3.8c0.2,0,0.3,0,0.5,0
			c0.1,0,0.3,0,0.4,0c0.6,0,1.3,0.1,2,0.3c0.1,0.2,0.3,0.8,0.3,2.2c0,8.7-2.9,22.1-8.5,39.9c-7.8,24.4-8.7,30-8.7,32
			c0,0.1,0,0.3,0,0.4c0.3,1.8,1.6,3.4,3.8,4.8c2,1.2,4.1,1.8,6.3,1.8c3.4,0,5.8-1.6,6.9-4.6c0,0,0,0,0,0l2.3-6.7
			c6.5-14.5,17.7-31.7,33.5-51.3c-0.2,0.6-0.4,1.3-0.6,1.9c-4.6,14.2-6.9,25.8-6.9,34.4c0,9.3,1.5,16.1,4.6,20.9
			c3.4,5.5,8.2,8.2,14.2,8.2c6.6,0,10.4-3.4,10.4-9.4c0-4.4-2.6-4.7-3.4-4.7c-1,0-1.9,0.6-2.4,1.5c-0.3,0.2-0.8,0.7-2,1.6
			c-2.2,1.7-2.9,1.8-3,1.8c-0.2,0-1,0-1.8-2.3c-0.8-2.4-1.3-6.1-1.3-11c0-2.7,1-9,5.6-23.7c1.9-6.2,3.9-12,6.1-17.3
			c2.1-5.3,4.4-10.1,6.8-14.3c0.1-0.1,0.1-0.2,0.2-0.4c0-0.1,0-0.1,0.1-0.2C692.8,488.5,693.4,487.4,693.2,486.3z M540.3,549.7
			c-0.6,0-1.1,0.2-1.6,0.5c-0.7,0.5-1.5,1.2-2.4,2c-0.7,0.7-2,1.7-3.9,3.3c-2.6,2.1-3.9,2.3-4.4,2.3c0,0-0.1,0-0.1,0
			c-0.1-0.1-0.7-0.9-0.7-3.9c0-2.8,0.5-6.5,1.6-11.3c1.1-4.8,3-11.1,5.5-18.6c2.4-7,4.9-13.5,7.4-19.4c2.5-5.8,5.1-10.9,7.8-15.3
			c0.4-0.6,0.5-1.3,0.3-1.9c-1.2-5.7-9.7-5.7-12.4-5.7c-2.8,0-5.1,0.9-6.8,2.6c-0.5,0.5-1.3,1.5-2.7,4.3c-1,2-1.5,3.3-1.7,4.4
			c-10.4,23.7-15.7,43.1-15.7,57.7c0,5.4,1,9.4,2.9,12.2c2.1,3.1,5.4,4.7,9.6,4.7c2.6,0,6.4-1.5,12-4.8c6.1-3.6,8.8-6.5,8.8-9.5
			C544,551.2,542.5,549.7,540.3,549.7z M617.8,525.7c-18.9,27.6-34.5,41-47.5,41c-16.2,0-24.7-8-24.7-23.2c0-11.1,5.4-24.6,16.1-40
			c0,0,0,0,0,0c11.4-16,22.1-23.8,32.9-23.8c4.8,0,9.1,1.6,12.7,4.6c3.8,3.2,5.8,7.2,5.8,11.8c0,7.2-4.4,14.5-13.2,21.6
			c-8.4,6.8-17,10.2-25.3,10.2c-4.6,0-4.9-2.8-4.9-3.6c0-0.1,0-0.1,0-0.2c-5.4,9.4-8.1,17.4-8.1,23.6c0,7.8,3.7,7.8,5.5,7.8
			c5.6,0,11.9-3,18.8-9c2.3-2.2,4.9-4.7,7.7-7.6c2.9-3,6-6.2,9.1-9.5c10.4-11.2,10.7-11.2,12.1-11.2c2.9,0,4.2,1.9,4.2,3.8
			c0,1.2-0.3,2.3-0.8,3.4C617.9,525.5,617.8,525.6,617.8,525.7z M580.3,508.7c-3.2,3.9-6.1,7.9-8.7,12c0.2-0.1,0.4-0.2,0.6-0.3
			c18.9-5.9,28.1-15.2,28.1-28.3c0-0.2,0-0.3,0-0.4c-1,0.3-3.3,1.4-8.3,5.3C587.8,500.4,583.9,504.3,580.3,508.7z M215.5,463.7
			c-0.7-1-0.8-2.3-0.3-3.9c0.4-1.1,0.8-2.5,14.2-11.8l0,0l0,0c3.5-2.3,6.5-4.3,9.4-6.2c4.4-2.9,5.4-3.3,6.1-3.5l1.1-0.3l1,0.7
			l0.7,0.5l0.6,0.4l0.3,0.6c2.2,4.6,6.5,10.7,12.8,18.3l0.4,0.5l0.1,0.6l0.4,1.9l0.3,1.4l-1.1,1l-1.2,1.2l-0.9,0.9l-1.3-0.2
			c-1.3-0.2-2.9-1-5.1-2.4c-1.9-1.2-3.9-2.7-5.8-4.3l-0.1-0.1l-0.1-0.1c-2.2-2.1-3.9-3.9-5.3-5.5c-0.6-0.7-1.2-1.4-1.7-2
			c-19.6,13.6-20.6,13.6-21.8,13.6C216.8,465.1,215.9,464.2,215.5,463.7z M197.4,548.4c-2.2,7.3-5,13-8.1,17.1
			c-4.3,5.6-9.6,8.5-15.6,8.5c-6,0-10.7-2.9-14-8.6c-3-5.2-4.5-11.7-4.5-19.3c0-3.4,0.3-7.2,0.8-11.2c0.5-4,1.2-8.4,2.1-13l0,0l0,0
			c1.1-5.1,2.3-10.3,3.7-15.5c1.4-5.2,3-10.6,4.7-16c1.5-4.6,3.1-9,5-13c-30.7,33.3-52.4,55.7-64.7,66.5l-4.7,9.9L102,554l-0.1,0.2
			c-1.8,2.5-5.2,3.7-10.5,3.7c-7.6,0-9-3.6-9.1-6c-0.1-0.8,0.2-1.5,0.5-2c0.2-0.5,0.5-1.1,0.9-2c0.8-1.7,2-4.2,3.7-7.5
			c3.2-6.6,8.2-16.6,14.7-29.8c13.1-26.3,19.8-43.7,19.8-52c0-4.7-1.9-4.7-3.1-4.7c-8.8,0-19.2,5.5-30.8,16.2
			c-5.8,5.5-11.6,11.8-17.2,18.8c-5.7,7.1-11.3,14.7-16.8,22.7c-7,10.4-12.2,20.3-15.5,29.5c-3.3,9.1-4.9,17.8-4.9,25.8
			c0,3.7,0.3,6.6,0.9,8.5c0.6,1.9,0.9,2.6,1.1,2.9c1,1,2.9,3,1.9,5.3c-0.4,1-1.4,2.1-3.9,2.1c-3.7,0-6.9-2.8-9.6-8.7
			c-2.4-5.1-3.6-11-3.6-17.4c0-12.3,3.7-28,10.9-46.6c7.1-18.4,18-40.2,32.2-64.8c0.7-1.4,1.6-3.1,2.7-5.3c1.1-2.2,2.6-4.8,4.4-7.8
			c1.5-2.6,3.1-4.9,4.9-6.8c2.2-2.5,4.1-3.6,6-3.6c2.6,0,5.4,0.6,8.4,1.7c3.8,1.5,5.7,3.5,5.7,6.1v0.7l-0.4,0.6
			c-8.9,14.7-16.4,27.2-22.4,37.5c5.9-6.5,11.5-11.9,17-16.2c11.5-9.1,22.4-13.8,32.4-13.8c5.4,0,9.5,1.6,12.3,4.9
			c2.7,3.1,4.1,7.7,4.1,13.6c0,12.1-6,31-18.4,57.7c2.5-2.4,5.2-5,8.1-7.9c7.6-7.6,16.9-17,27.6-28c1-1.3,2.6-3.3,5-5.9
			c2.4-2.6,4.8-5.4,7.3-8.2l0,0l0,0c9.6-10.1,13.3-11.5,15.7-11.5c0.5,0,0.9,0.1,1.4,0.3c4.6-4.7,9.3-7,14-7c5.7,0,6.5,2.6,6.5,4.2
			c0,1,0,1.7-9.7,19.2c-16.4,29.7-24.7,54.9-24.7,75.1c0,13.1,2.2,17.7,4.2,17.7c0.1,0,1.8-0.1,5.4-5.7c2.9-4.4,6.3-11.2,10.1-20.1
			l0-0.1l0.1-0.1c1.3-2.5,2.9-4.8,5.2-4.8c0,0,0.1,0,0.2,0c0.4-5.2,1.8-10.6,4.1-16.2c2.5-6.3,5.6-11.5,9.3-15.7
			c-1.5-3.3-2.3-7.3-2.3-11.8c0-5.7,2.4-11,7-15.5c4.7-4.6,10.4-6.9,17.2-6.9c12,0,20.4,6.1,24.9,18.1c6.6,1.4,12.9,3.5,12.9,8
			c0,6-4,6.5-5.2,6.5h-0.2l-0.2,0l-3.2-0.5c0,0.5,0.1,1,0.1,1.4c0.1,1.5,0.1,2.7,0.1,3.8c0,14.7-3.8,28-11.4,39.7l0,0l0,0
			c-7.8,11.7-17.7,17.6-29.5,17.6C207.9,563.1,200.3,558.1,197.4,548.4z M223.7,516.1c-7.9,9.7-11.9,18.9-11.9,27.3
			c0,10.2,4.2,11.5,7.8,11.5c6.1,0,12.1-5.2,17.8-15.3c6-10.8,9.1-21.3,9.1-31c0-3.1-0.4-5.8-1.2-8c-4.5,1.2-9.3,3.9-14.6,8.3
			c0.6,0,0.8-0.1,0.9-0.1c2.3,0,3.9,1.6,3.9,3.9c0,1.1-0.4,4.7-6,4.7C227.7,517.3,225.7,516.9,223.7,516.1z M218,496.2
			c0,0.1,0,0.2,0,0.3c8.6-6.2,15-9.8,19.6-11c-2.1-3-5.2-4.4-9.5-4.4c-2.2,0-4,0.7-5.4,2.2c-1.6,1.7-2.8,3.8-3.6,6.1
			C218.4,491.9,218,494.2,218,496.2z M220.7,567.6l-0.6-0.3l-0.7,0c-2.5,0.2-4.2,0.4-5.3,0.6c-1.2,0.3-2.8,1.1-5,2.4
			c-5.1,3.1-7.2,5.3-7.2,7.8c0,1.8,0.6,3.5,1.9,5.1c1.8,2.2,3.7,2.6,5,2.6c2.6,0,5.2-1.5,8.1-4.6c4.2-4.5,5.2-6.5,5.6-7.6
			C223.7,570.4,222.3,568.4,220.7,567.6z M261.2,556.6v0.2l0,0.2c0.3,1.8,1.6,3.4,3.8,4.8c2,1.2,4.1,1.8,6.3,1.8
			c3.4,0,5.8-1.6,6.9-4.6l0,0l0,0l2.3-6.7c6.5-14.5,17.7-31.7,33.5-51.3c-0.2,0.6-0.4,1.2-0.6,1.9c-4.6,14.3-6.9,25.8-6.9,34.4
			c0,9.3,1.5,16.1,4.6,20.9c3.4,5.5,8.2,8.2,14.2,8.2c6.6,0,10.4-3.4,10.4-9.4c0-4.4-2.6-4.7-3.4-4.7h-6.2l2.6,2.6
			c-0.2,0.2-0.4,0.3-0.7,0.6c-2.2,1.7-2.9,1.8-3,1.8c-0.7,0-1.3-0.8-1.8-2.3c-0.8-2.4-1.3-6.1-1.3-11c0-2.7,1-9,5.6-23.7
			c1.9-6.2,3.9-12,6.1-17.3c1.9-4.8,4-9.2,6.1-13.1l3.5,3.4l-1.2-7.8c-0.9-5.6-9-5.6-11.7-5.6h-1.3c-3.1,0-5.8,2.1-8.6,6.5l-0.2-0.2
			H319c-2.5,0-6.3,1.7-16.3,14c-3.5,4.3-7.1,9.2-10.9,14.3c-0.3,0.4-0.6,0.8-0.8,1.2c5.9-18.5,6.7-23.4,6.7-25.3
			c0-7.7-3.5-16.9-20.1-16.9c-6,0-6.5,3.8-6.5,4.9c0,1.9,1.3,3.8,4.1,3.8c0.2,0,0.3,0,0.5,0c0.1,0,0.3,0,0.4,0c0,0,0,0,0,0
			c0.6,0,1.3,0.1,2,0.3c0.1,0.2,0.3,0.8,0.3,2.2c0,8.7-2.9,22.1-8.5,39.9C262.1,549,261.2,554.6,261.2,556.6z M413.6,596.2
			c0,2.6-0.3,4.6-1,6c-1,2-2.6,3.1-4.7,3.1c-1,0-2.8-0.4-3.8-3.3l-0.4-1.3l0.8-1.1c1.1-1.5,1.6-2.8,1.6-3.9c0-2.8-2-5.8-6-8.9
			c-3.6-2.8-7.5-5-11.6-6.6c-2.5,16.8-9.3,33.1-20.1,48.5c-11.5,16.2-26,29.3-43,38.8c-17.2,9.7-35.2,14.7-53.6,14.7
			c-12.7,0-23.5-3.6-32-10.8c-8.7-7.3-13-17.4-13-30.1c0-12.5,7-25.2,20.9-37.6c13.4-11.8,30.4-21.4,50.6-28.6
			c19.5-7,39.2-10.6,58.7-10.6c7.9,0,14.9,0.6,20.8,1.9c0.2-0.9,0.3-1.8,0.3-2.6c0-3.6-0.3-6.2-0.7-8c-6.1,5-12,7.5-17.3,7.5
			c-6.4,0-12-3.1-16.6-9.1l0,0l0,0c-4.5-6-6.8-12.3-6.8-18.8c0-12.6,6.7-25.7,20.1-38.9c0.1-10.1,1.2-16.7,3.5-20.4l0-0.1l0-0.1
			c2.9-4.2,7.8-6.3,14.4-6.3c7.1,0,14.1,5.7,21.4,17.5c13.1,2.6,19.7,8,19.7,16.2c0,3.6-1.4,6.5-4.1,8.5c-1.5,1.1-2.6,1.6-3.8,1.6
			c-1.6,0-3.4-1.2-3.4-3.8v-1.4l1.1-0.8c1.5-1,1.5-1.8,1.5-2c0-1.3,0-4.4-7-5.1v2.7c0,16.6-4.9,31.5-14.7,44.3
			c2.3,5,3.5,11.5,3.5,19.2v2.5c0,0.3,0,0.5,0,0.8c6.6,2.8,12.2,6.6,16.7,11.3C410.9,586.3,413.6,591.4,413.6,596.2z M362.5,517.2
			c-2.4,3-4.6,6.7-6.6,11.1c-2.7,5.9-4.1,11.1-4.1,15.6c0,9.7,4.2,10.9,7.8,10.9c4.8,0,9.6-3.5,14.3-10.4L362.5,517.2z M385,501.2
			c-2.6,1.1-6,2.7-10,4.9c-4.3,2.2-5.9,3.4-6.5,4c0.6,1.8,3,7.4,11.3,25.2c4.3-7.6,6.5-15.9,6.5-24.5
			C386.3,507.3,385.8,504.1,385,501.2z M377.8,485.6c-2.2-3.1-4.8-3.5-6.7-3.5c-2.4,0-3.9,2.3-4.5,7
			C370.4,487.1,374.2,485.9,377.8,485.6z M370.8,576.8c-2.8-0.3-6-0.4-9.5-0.4c-16.2,0-32.4,2.1-48,6.2
			c-15.7,4.3-29.3,9.7-40.4,16.2c-11.1,6.4-20,13.4-26.6,20.8l0,0l0,0c-3.3,3.6-5.7,7.4-7.3,11.2c-1.6,3.8-2.4,7.5-2.4,11
			c0,6.8,2.6,12.3,7.9,17.1c5.3,4.7,12.9,7.2,22.6,7.2c11.9,0,23.8-2.3,35.1-6.8c11.4-4.6,22.7-11.7,33.5-21.2
			c20.2-17.9,33.5-38.4,39.6-60.8C373.8,577.1,372.4,577,370.8,576.8z"/>
	</g>
</g>
<g id="pre-clip" class="st0">
	<path id="mongtiengioi.com_1_" class="st4" d="M436.8,599.9h4.4v2.5c1.6-1.9,3.5-2.9,5.7-2.9c1.2,0,2.2,0.2,3,0.7
		c0.9,0.5,1.6,1.2,2.1,2.2c0.8-1,1.7-1.7,2.6-2.2c0.9-0.5,1.9-0.7,3-0.7c1.3,0,2.5,0.3,3.4,0.8c0.9,0.5,1.6,1.3,2.1,2.4
		c0.3,0.8,0.5,2,0.5,3.8v11.7h-4.8v-10.4c0-1.8-0.2-3-0.5-3.5c-0.4-0.7-1.1-1-2.1-1c-0.7,0-1.3,0.2-1.9,0.6c-0.6,0.4-1,1-1.3,1.8
		c-0.3,0.8-0.4,2.1-0.4,3.8v8.8h-4.8v-10c0-1.8-0.1-2.9-0.3-3.4c-0.2-0.5-0.4-0.9-0.8-1.2c-0.4-0.3-0.9-0.4-1.5-0.4
		c-0.7,0-1.4,0.2-2,0.6c-0.6,0.4-1,1-1.3,1.7c-0.3,0.8-0.4,2-0.4,3.8v8.9h-4.8V599.9z M467.3,608.8c0-1.6,0.4-3.2,1.2-4.7
		c0.8-1.5,1.9-2.6,3.4-3.4c1.4-0.8,3.1-1.2,4.9-1.2c2.8,0,5,0.9,6.8,2.7c1.8,1.8,2.6,4.1,2.6,6.8c0,2.8-0.9,5-2.7,6.9
		c-1.8,1.8-4,2.7-6.7,2.7c-1.7,0-3.3-0.4-4.8-1.1c-1.5-0.8-2.7-1.9-3.5-3.3C467.7,612.6,467.3,610.9,467.3,608.8z M472.3,609
		c0,1.8,0.4,3.2,1.3,4.2c0.9,1,1.9,1.4,3.2,1.4c1.3,0,2.3-0.5,3.2-1.4c0.9-1,1.3-2.4,1.3-4.2c0-1.8-0.4-3.2-1.3-4.1
		c-0.9-1-1.9-1.4-3.2-1.4c-1.3,0-2.3,0.5-3.2,1.4C472.7,605.8,472.3,607.2,472.3,609z M506.5,618.1h-4.8v-9.3c0-2-0.1-3.2-0.3-3.8
		c-0.2-0.6-0.5-1-1-1.3c-0.5-0.3-1-0.5-1.7-0.5c-0.8,0-1.6,0.2-2.2,0.7c-0.7,0.5-1.1,1.1-1.4,1.8c-0.2,0.8-0.4,2.2-0.4,4.2v8.3h-4.8
		v-18.2h4.5v2.7c1.6-2.1,3.6-3.1,6-3.1c1.1,0,2,0.2,2.9,0.6c0.9,0.4,1.5,0.9,2,1.5c0.5,0.6,0.8,1.3,0.9,2c0.2,0.8,0.3,1.8,0.3,3.2
		V618.1z M511,619.3l5.5,0.7c0.1,0.6,0.3,1.1,0.6,1.3c0.5,0.3,1.2,0.5,2.2,0.5c1.3,0,2.2-0.2,2.8-0.6c0.4-0.3,0.7-0.7,1-1.2
		c0.1-0.4,0.2-1.1,0.2-2.2v-2.7c-1.4,2-3.3,3-5.5,3c-2.4,0-4.4-1-5.8-3.1c-1.1-1.6-1.7-3.7-1.7-6.1c0-3.1,0.7-5.4,2.2-7
		c1.5-1.6,3.3-2.4,5.5-2.4c2.3,0,4.1,1,5.6,3v-2.6h4.5v16.4c0,2.2-0.2,3.8-0.5,4.8c-0.4,1.1-0.9,1.9-1.5,2.5
		c-0.6,0.6-1.5,1.1-2.6,1.4c-1.1,0.3-2.4,0.5-4.1,0.5c-3.1,0-5.3-0.5-6.6-1.6c-1.3-1.1-1.9-2.4-1.9-4
		C510.9,619.8,510.9,619.6,511,619.3z M515.3,608.6c0,1.9,0.4,3.4,1.1,4.3c0.7,0.9,1.7,1.3,2.8,1.3c1.2,0,2.2-0.5,3-1.4
		c0.8-0.9,1.2-2.3,1.2-4.1c0-1.9-0.4-3.3-1.2-4.2c-0.8-0.9-1.8-1.4-3-1.4c-1.2,0-2.1,0.4-2.9,1.3
		C515.6,605.4,515.3,606.8,515.3,608.6z M541.2,599.9v3.8H538v7.3c0,1.5,0,2.4,0.1,2.6c0.1,0.2,0.2,0.4,0.4,0.6
		c0.2,0.2,0.5,0.2,0.8,0.2c0.4,0,1.1-0.2,1.9-0.5l0.4,3.7c-1.1,0.5-2.4,0.7-3.8,0.7c-0.9,0-1.7-0.1-2.4-0.4
		c-0.7-0.3-1.2-0.7-1.5-1.1c-0.3-0.5-0.6-1.1-0.7-1.9c-0.1-0.6-0.2-1.7-0.2-3.4v-8h-2.2v-3.8h2.2v-3.6l4.8-2.8v6.4H541.2z
		 M544.6,597.4V593h4.8v4.5H544.6z M544.6,618.1v-18.2h4.8v18.2H544.6z M564.9,612.3l4.8,0.8c-0.6,1.8-1.6,3.1-2.9,4
		c-1.3,0.9-3,1.4-5,1.4c-3.2,0-5.5-1-7-3.1c-1.2-1.7-1.8-3.8-1.8-6.3c0-3,0.8-5.4,2.4-7.1c1.6-1.7,3.6-2.6,6-2.6
		c2.7,0,4.9,0.9,6.4,2.7c1.6,1.8,2.3,4.5,2.2,8.2h-12.1c0,1.4,0.4,2.5,1.2,3.3c0.7,0.8,1.7,1.2,2.8,1.2c0.8,0,1.4-0.2,1.9-0.6
		C564.3,613.9,564.7,613.3,564.9,612.3z M565.2,607.5c0-1.4-0.4-2.5-1.1-3.2c-0.7-0.7-1.5-1.1-2.5-1.1c-1.1,0-1.9,0.4-2.6,1.2
		s-1,1.8-1,3.1H565.2z M590.5,618.1h-4.8v-9.3c0-2-0.1-3.2-0.3-3.8c-0.2-0.6-0.5-1-1-1.3c-0.5-0.3-1-0.5-1.7-0.5
		c-0.8,0-1.6,0.2-2.2,0.7c-0.7,0.5-1.1,1.1-1.4,1.8c-0.2,0.8-0.4,2.2-0.4,4.2v8.3h-4.8v-18.2h4.5v2.7c1.6-2.1,3.6-3.1,6-3.1
		c1.1,0,2,0.2,2.9,0.6c0.9,0.4,1.5,0.9,2,1.5c0.5,0.6,0.8,1.3,0.9,2c0.2,0.8,0.3,1.8,0.3,3.2V618.1z M595,619.3l5.5,0.7
		c0.1,0.6,0.3,1.1,0.6,1.3c0.5,0.3,1.2,0.5,2.2,0.5c1.3,0,2.2-0.2,2.8-0.6c0.4-0.3,0.7-0.7,1-1.2c0.1-0.4,0.2-1.1,0.2-2.2v-2.7
		c-1.4,2-3.3,3-5.5,3c-2.4,0-4.4-1-5.8-3.1c-1.1-1.6-1.7-3.7-1.7-6.1c0-3.1,0.7-5.4,2.2-7c1.5-1.6,3.3-2.4,5.5-2.4
		c2.3,0,4.1,1,5.6,3v-2.6h4.5v16.4c0,2.2-0.2,3.8-0.5,4.8c-0.4,1.1-0.9,1.9-1.5,2.5c-0.6,0.6-1.5,1.1-2.6,1.4
		c-1.1,0.3-2.4,0.5-4.1,0.5c-3.1,0-5.3-0.5-6.6-1.6c-1.3-1.1-1.9-2.4-1.9-4C594.9,619.8,595,619.6,595,619.3z M599.3,608.6
		c0,1.9,0.4,3.4,1.1,4.3c0.7,0.9,1.7,1.3,2.8,1.3c1.2,0,2.2-0.5,3-1.4c0.8-0.9,1.2-2.3,1.2-4.1c0-1.9-0.4-3.3-1.2-4.2
		c-0.8-0.9-1.8-1.4-3-1.4c-1.2,0-2.1,0.4-2.9,1.3C599.6,605.4,599.3,606.8,599.3,608.6z M616.9,597.4V593h4.8v4.5H616.9z
		 M616.9,618.1v-18.2h4.8v18.2H616.9z M625.5,608.8c0-1.6,0.4-3.2,1.2-4.7c0.8-1.5,1.9-2.6,3.4-3.4c1.4-0.8,3.1-1.2,4.9-1.2
		c2.8,0,5,0.9,6.8,2.7s2.6,4.1,2.6,6.8c0,2.8-0.9,5-2.7,6.9c-1.8,1.8-4,2.7-6.7,2.7c-1.7,0-3.3-0.4-4.8-1.1
		c-1.5-0.8-2.7-1.9-3.5-3.3C625.9,612.6,625.5,610.9,625.5,608.8z M630.5,609c0,1.8,0.4,3.2,1.3,4.2c0.9,1,1.9,1.4,3.2,1.4
		s2.3-0.5,3.2-1.4c0.9-1,1.3-2.4,1.3-4.2c0-1.8-0.4-3.2-1.3-4.1c-0.9-1-1.9-1.4-3.2-1.4s-2.3,0.5-3.2,1.4
		C630.9,605.8,630.5,607.2,630.5,609z M648.1,597.4V593h4.8v4.5H648.1z M648.1,618.1v-18.2h4.8v18.2H648.1z M657.9,618.1v-4.8h4.8
		v4.8H657.9z M683.6,605.3l-4.8,0.9c-0.2-1-0.5-1.7-1.1-2.1c-0.6-0.5-1.3-0.7-2.2-0.7c-1.2,0-2.2,0.4-2.9,1.2
		c-0.7,0.8-1.1,2.2-1.1,4.2c0,2.2,0.4,3.7,1.1,4.6c0.7,0.9,1.7,1.3,2.9,1.3c0.9,0,1.7-0.3,2.2-0.8c0.6-0.5,1-1.4,1.2-2.7l4.7,0.8
		c-0.5,2.2-1.4,3.8-2.8,4.9c-1.4,1.1-3.3,1.7-5.6,1.7c-2.7,0-4.8-0.8-6.4-2.5c-1.6-1.7-2.4-4-2.4-7c0-3,0.8-5.4,2.4-7
		c1.6-1.7,3.7-2.5,6.5-2.5c2.2,0,4,0.5,5.3,1.4C682.1,601.9,683,603.3,683.6,605.3z M686.1,608.8c0-1.6,0.4-3.2,1.2-4.7
		c0.8-1.5,1.9-2.6,3.4-3.4c1.4-0.8,3.1-1.2,4.9-1.2c2.8,0,5,0.9,6.8,2.7s2.6,4.1,2.6,6.8c0,2.8-0.9,5-2.7,6.9
		c-1.8,1.8-4,2.7-6.7,2.7c-1.7,0-3.3-0.4-4.8-1.1c-1.5-0.8-2.7-1.9-3.5-3.3C686.5,612.6,686.1,610.9,686.1,608.8z M691.1,609
		c0,1.8,0.4,3.2,1.3,4.2c0.9,1,1.9,1.4,3.2,1.4s2.3-0.5,3.2-1.4c0.9-1,1.3-2.4,1.3-4.2c0-1.8-0.4-3.2-1.3-4.1
		c-0.9-1-1.9-1.4-3.2-1.4s-2.3,0.5-3.2,1.4C691.5,605.8,691.1,607.2,691.1,609z M708.4,599.9h4.4v2.5c1.6-1.9,3.5-2.9,5.7-2.9
		c1.2,0,2.2,0.2,3,0.7c0.9,0.5,1.6,1.2,2.1,2.2c0.8-1,1.7-1.7,2.6-2.2c0.9-0.5,1.9-0.7,3-0.7c1.3,0,2.5,0.3,3.4,0.8
		c0.9,0.5,1.6,1.3,2.1,2.4c0.3,0.8,0.5,2,0.5,3.8v11.7h-4.8v-10.4c0-1.8-0.2-3-0.5-3.5c-0.4-0.7-1.1-1-2.1-1c-0.7,0-1.3,0.2-1.9,0.6
		c-0.6,0.4-1,1-1.3,1.8c-0.3,0.8-0.4,2.1-0.4,3.8v8.8h-4.8v-10c0-1.8-0.1-2.9-0.3-3.4c-0.2-0.5-0.4-0.9-0.8-1.2
		c-0.4-0.3-0.8-0.4-1.5-0.4c-0.7,0-1.4,0.2-2,0.6c-0.6,0.4-1,1-1.3,1.7c-0.3,0.8-0.4,2-0.4,3.8v8.9h-4.8V599.9z"/>
	<g class="st1">
		<path class="st3" d="M267,507.7c1.9,1.9,3.7,3.9,7.4,7.6c1.6-10.5,3-19.1,4.3-27.8c0.8,0,1.6-0.1,2.5-0.1
			c2.5,44,5.9,87,28.1,126.6c21.8,39.1,53.7,68,84.8,98.6c-9.5-7.6-19.2-15.1-28.6-22.8c-9.4-7.8-18.6-15.8-27.9-23.8
			c-0.6,0.4-1.1,0.8-1.7,1.3c1.9,2.8,3.4,6,5.9,8.3c32.1,29.4,65.8,56.6,107.4,72.4c30.7,11.7,62.5,17.3,96,13.5
			c6.4-0.7,12.9-0.4,19.3-0.6c30.3-2.6,58.4-12.6,85.2-27c-6.5,1.8-12.6,4.8-19,6.9c-7.4,2.5-14.9,4.2-22.4,6.3
			c100.5-40.3,161-112.7,182.9-217.6c-1.4,8-2.4,16.1-4.2,24.1c-1.8,8.1-4.3,16.1-5.1,24.4c9.3-18.9,14-38.9,14.2-59.3
			c0.2-20.2-0.8-40.7-3.9-60.6c-3.2-20-9.6-39.3-14.5-59.3c5,12.9,10.8,25.6,14.6,38.9c3.9,13.5,5.9,27.5,8.7,41.2
			c4-9.5-6.4-51.7-16.3-76.2c-9.8-24.4-21.7-47.7-38.2-69.6c9,0,14.3,2.5,18.2,8.5c6.2,9.7,11.6,20.7,20.2,27.8
			c7.5,6.1,6.3,16.5,14.3,21.6c2,1.3,1,6.5,2.1,9.6c4.4,12.2,9.1,24.4,14.4,38.5c-1.5-19.2-6-53-47.9-121.2
			c43.2,59.6,65.8,125.8,57.7,201.8c1.1-6,2.2-12.1,3.3-18.1c0.6,0.1,1.3,0.2,1.9,0.2c-2,12.3-4.1,24.5-5.9,36.8
			c-6.4,44.2-22.7,85.4-49.2,121.6c-33.5,45.9-76,82.4-127.8,107.5c-56.2,27.3-114.7,40.9-176.3,36.7c-15.7-1.1-31.2-5.3-46.7-8.6
			c-2.4-0.5-4-4-6.3-5.8c-3.5-2.7-7-5.6-10.9-7.5c-15.3-7.4-30.8-14.5-45.7-22.9c20.4,9.5,41.2,17.8,63.9,21.7
			c-83.2-32.1-149-83.2-186.7-165.3c-0.8,0.3-1.7,0.5-2.5,0.8c2.9,12.2,5.9,24.5,8.8,36.7c-0.1,0.1-0.3,0.3-0.4,0.4
			c-3.8-8.4-8.4-16.6-11.2-25.3c-4.8-15-8.5-30.5-12.6-45.7c-4.2-15.5-9.8-30.8-11.9-46.7c-2.3-17.6-1.4-35.7-1.9-53.6
			c0.9-0.1,1.8-0.1,2.7-0.2c0.5,10.1,1.1,20.2,1.6,30.3c0.8,0,1.6,0,2.5,0c-0.2-59.7,19.3-115.8,36.9-174.1
			c-12.2,8.9-15,22.9-25.2,33.9c0.6-5.6,1.1-9.6,1.7-15.7c-2.8,3.8-4.3,5.8-5.8,7.7c-0.3-0.2-0.6-0.3-0.9-0.5c1.7-4,3.4-8,5.7-13.6
			c-13.3,3.1-12,16.6-21.3,20.9c4.2-7.5,8.5-14.9,12.5-22.6c0.9-1.7,0.5-4.1-0.8-6.6c37.5-65,85.8-119.4,160.3-145.7
			c-31.1,5.7-56.2,23.4-81.5,40.5c-0.4-0.8-0.9-1.5-1.3-2.3c17.2-11.3,33.7-23.8,51.7-33.6c24.7-13.6,51.5-22.1,79.1-27.1
			c26.9-4.8,53.9-5.9,80.9-2.6c21,2.5,42.6,3.1,63.1,7.6c22.9,5,45.2,12.9,67.2,20.7c6.2,2.2,10.9,8.3,15.9,13.1
			c6.3,6.1,11.5,13.5,18.2,19c10.9,9,15.9,20.6,16.2,34.3c0.1,4.9-2.7,9.9-4.1,14.8c-2.5,8.4-4.6,17-7.7,25.2
			c-5.3,14-12.4,22.6-30,22.5c-27.9-0.2-53.8-7.2-76.1-23.8c-4.1-3-8.1-6.3-12.3-9c-5.8-3.7-12.1-6.4-10.5-15.7
			c0.5-2.6-3.3-6.2-5.9-8.6c-5-4.6-10.4-8.9-15.9-13c-17-12.9-36.3-12.8-56.7-8.9c-7.3,1.4-15.1-0.1-22.6,0.6
			c-5.1,0.5-10.2,2.3-15.3,3.8c-0.7,0.2-1.9,2.1-1.7,2.4c0.8,1.1,2,2.7,3.2,2.7c3.8,0.1,7.6-0.5,12,0.4c-3.5,1.9-6.9,3.9-10.4,5.8
			c20.1,3.8,41.5-4.3,58.9,10.4c-33.7-9.4-65.3,4.6-97.7,9.6c0.1,1,0.1,1.9,0.2,2.9c2.9-0.2,5.9-0.5,8.4-0.7
			C389,294.1,375,301.1,361,308c0.5,1.1,0.9,2.2,1.4,3.3c4-1.6,8-3.2,13.7-5.5c-11.2,7.7-20.6,14.7-30.6,20.7
			c-11.6,6.9-19.8,16.5-26,28.2c-0.4,0.7-1,1.9-0.7,2.3c5.6,7.3-1.9,11.2-4.8,16.1c-8.2,13.6-17,26.9-25,40.7
			c-4,6.8-7.7,14.1-9.6,21.6c-2.8,10.8-3.9,21.9-5.6,32.9c-1.7,10.4-3.4,20.7-4.7,31.1c-0.3,2,1.2,4.3,2,6.7c-1.2,0.6-2.6,1.3-4.1,2
			c-1.9-26.9,3.3-53,12.2-78.5c4.3-12.5,11.2-24.2,16.9-36.3c0.5-1.1,0.4-2.4,0.5-3.7c-1.8-0.1-3.6-0.1-5.2-0.2
			c2.2-6.2,4.4-12.3,6.6-18.3c-0.9-0.4-1.9-0.9-2.8-1.3c-1,1.4-2.3,2.7-3.1,4.3c-3.2,6.6-6.3,13.2-9.3,19.8c-1,2.2-2.6,6.1-2,6.5
			c4.4,3.1,0.7,5.6-0.4,8.2c-4.8,11.9-11.6,23.4-14.1,35.7c-6.2,31.2-4.1,62.6-2.3,93.9c0.2,2.6,2.1,5,3.3,7.5c1-0.3,2-0.6,3-0.9
			c0.1-2.8,0.4-5.5,0.1-8.3C269.4,526.9,268.1,517.3,267,507.7z M347.1,725.2c-20.3-18.8-40.6-37.6-60.9-56.3
			C301.2,693.6,322.4,711.6,347.1,725.2z M416,763.3c0.3-0.6,0.5-1.3,0.8-1.9c-20.7-10.5-41.5-20.9-62.2-31.4
			c-0.5,0.9-1,1.9-1.4,2.8C371.9,747.3,394.2,754.7,416,763.3z M230,655.2c2.7,16.6,8.8,30,18.4,41.6c2.7,3.3,6.3,7.1,11.6,3.5
			C250.1,685.4,240.5,671,230,655.2z M200.2,459.4c0.7-6.1,1.1-12.3,1.6-18.5c-1-0.1-1.9-0.1-2.9-0.2c-0.9,23.1-9.3,45.8-4.8,69.3
			C196.1,493.2,198.2,476.3,200.2,459.4z M261.9,685.4c-7-10.5-14-21-20.9-31.5c-0.7,0.5-1.4,0.9-2,1.4
			c6.6,10.7,13.2,21.5,19.8,32.2C259.8,686.7,260.8,686,261.9,685.4z M182.8,462.4c2.1-5.8,4.3-11.7,6.6-18.1
			C183.7,444.8,183.7,444.8,182.8,462.4z M222.3,421.8c1.2-8.7,7.6-16.5,4.2-26c-2.3,8.6-4.6,17.1-6.9,25.7
			C220.5,421.5,221.4,421.6,222.3,421.8z M733.5,319.1c0.9,9.6,0.9,9.6,11.9,8.9C741.4,325,737.4,322,733.5,319.1z M215.7,437.1
			c-1.5,8.3-3,16.6-4.5,24.9c0.8,0.1,1.6,0.2,2.4,0.3c1.6-8.3,3.1-16.6,4.7-24.9C217.5,437.3,216.6,437.2,215.7,437.1z"/>
	</g>
	<g class="st1">
		<path class="st5" d="M271.6,686.7c-13.8,0-25.6-4-34.9-11.8c-9.7-8.2-14.7-19.5-14.7-33.6c0-13.9,7.5-27.7,22.4-41
			c13.8-12.2,31.4-22.1,52.1-29.5c5-1.8,10.1-3.4,15.2-4.8c-1.7-1.5-3.2-3.2-4.5-5.3c-3.5-5.5-5.3-13.2-5.3-23.3
			c0-4.4,0.6-9.5,1.7-15.2c-8.4,11.8-14.7,22.5-19,31.9c0,0-2.3,6.6-2.3,6.6c-1.7,4.7-5.9,7.5-11.1,7.5c-3,0-6-0.8-8.6-2.5
			c-4.2-2.6-5.6-5.7-5.9-7.9l0-0.2c0-0.2-0.1-0.5-0.1-0.7v-0.2c0-2.9,1.1-8.9,8.9-33.4c2.5-7.9,4.5-15,5.8-21
			c-1.6,2-3.9,3.2-6.3,3.4c0,0.1,0,0.2,0,0.3c0,15.6-4.1,29.7-12.1,42.2c0,0,0,0.1-0.1,0.1c-7.2,10.8-16.1,17.2-26.7,19
			c1.2,2.1,1.5,4.9,0.3,8.1c-0.6,1.7-1.9,4.1-6.5,9.1c-3.8,4.1-7.5,6.1-11.4,6.1c-3.2,0-6.2-1.5-8.5-4.3c-1.9-2.4-2.9-5.1-2.9-7.9
			c0-5.3,4.5-8.7,9.3-11.6c0.4-0.3,0.9-0.5,1.3-0.8c-3.9-1.4-7.2-3.6-9.8-6.6c-1.6,3.6-3.4,6.6-5.3,9.1
			c-5.1,6.7-11.8,10.3-19.2,10.3c-7.6,0-13.8-3.8-17.9-10.9c-3.4-5.9-5.1-13.2-5.1-21.5c0-3.6,0.3-7.6,0.8-11.8
			c0.5-4.1,1.3-8.5,2.1-13.3c0,0,0-0.1,0-0.1c1.1-5.2,2.3-10.5,3.7-15.8c0.8-2.9,1.6-5.9,2.5-8.8c-22.5,24.1-39.1,41-49.5,50.2
			L106,556c-0.1,0.2-0.2,0.4-0.4,0.6l-0.1,0.2c-2.7,3.8-7.3,5.6-14.2,5.6c-12,0-13.5-7.6-13.6-10.1c-0.2-1.9,0.5-3.4,0.9-4.2
			c0.2-0.5,0.5-1.1,1-2c0.8-1.7,2-4.2,3.7-7.6c3.2-6.6,8.2-16.7,14.7-29.8c16-31.9,19.3-44.8,19.3-50c0,0,0-0.1,0-0.1
			c-7.3,0.6-16.4,5.7-26.3,15c-5.6,5.3-11.3,11.4-16.8,18.3c-5.6,7-11.2,14.5-16.6,22.5c-6.7,10-11.8,19.6-15,28.5
			c-3.1,8.7-4.7,16.8-4.7,24.3c0,4.2,0.4,6.3,0.7,7.1c0.3,0.8,0.5,1.4,0.6,1.7c3.5,3.9,3.2,7.3,2.3,9.5c-0.6,1.5-2.6,4.9-8.1,4.9
			c-5.6,0-10.2-3.8-13.7-11.2c-2.7-5.7-4.1-12.2-4.1-19.3c0-12.9,3.8-29.1,11.2-48.2C34.1,493,45,471,59.3,446.2
			c0.7-1.4,1.6-3.1,2.7-5.3c1.2-2.2,2.7-4.9,4.5-8c1.6-2.8,3.4-5.4,5.4-7.6c2-2.2,5.1-5.1,9.3-5.1c3.1,0,6.5,0.7,10,2
			c7.5,2.9,8.6,7.7,8.6,10.3v0.7c0,0.8-0.2,1.6-0.7,2.3l-0.4,0.6c-2.5,4-4.8,7.9-7.1,11.7c10.5-7.3,20.6-11,30.2-11
			c6.6,0,12.1,2.2,15.7,6.4c3.4,4,5.2,9.5,5.2,16.6c0,9.1-3.2,21.7-9.6,38.2c5.7-5.7,12-12.2,18.9-19.3c1.1-1.4,2.7-3.4,5.1-6
			c2.4-2.6,4.8-5.3,7.2-8.1c0,0,0.1-0.1,0.2-0.2c10.1-10.6,14.7-12.9,18.8-12.9c5-4.5,10.2-6.8,15.6-6.8c8.1,0,11,4.7,11,8.7
			c0,2.2,0,2.9-10.3,21.4c-16,29-24.1,53.5-24.1,72.9c0,5,0.3,8.3,0.7,10.5c0.2-0.3,0.4-0.6,0.6-0.9c2.8-4.2,6-10.7,9.8-19.4l0-0.1
			c0.1-0.1,0.1-0.2,0.2-0.4l0.1-0.1c0.8-1.5,2.4-4.5,5.2-6.1c0.7-4.7,2-9.5,4-14.5c2.3-5.7,5.1-10.7,8.3-14.9c-1.1-3.3-1.7-7-1.7-11
			c0-7,2.8-13.3,8.4-18.8c1.3-1.2,2.6-2.3,4-3.3c-1.3-0.6-2.5-1.5-3.3-2.6c-1.6-2.2-1.9-5-0.9-7.9c0.8-2.5,1.9-4.3,15.9-14.1
			c0,0,0.1-0.1,0.1-0.1c3.5-2.3,6.6-4.3,9.4-6.2c4.6-3,6.1-3.7,7.5-4.1l1.1-0.3c0.4-0.1,0.7-0.1,1.1-0.1c0.9,0,1.8,0.3,2.6,0.8
			l2.2,1.5c0.7,0.5,1.2,1.1,1.5,1.8l0.3,0.6c2,4.2,6.1,10.1,12.2,17.3l0.4,0.5c0.5,0.6,0.8,1.2,1,1.9l0.9,3.9
			c0.3,1.5-0.1,3.1-1.3,4.2l-3.2,3.1c-0.8,0.8-2,1.3-3.1,1.3c-0.2,0-0.5,0-0.7-0.1l-1.3-0.2c-1.9-0.3-4-1.2-6.8-3
			c-2.1-1.3-4.2-2.9-6.3-4.6c-0.1-0.1-0.2-0.2-0.3-0.2c-1.9-1.8-3.4-3.4-4.7-4.8c-4.1,2.8-7.3,5-9.8,6.6c0.6,0,1.2,0,1.8,0
			c13.1,0,22.8,6.4,28.1,18.7c4.8,1.1,11.9,3.4,13.7,9.1c0.2-1.9,0.4-3.6,0.5-5.2c-4.2-0.6-7.2-3.9-7.2-8.2c0-4.7,3.4-9.4,11-9.4
			c22.2,0,24.6,15,24.6,21.4c0,0.9-0.1,2.1-0.5,4c8.3-9.7,12.6-12.3,16.4-12.6c3.2-4.2,6.8-6.3,10.8-6.3h1.3
			c12.1,0,15.5,5.1,16.1,9.4l1.2,7.8c0.3,1.9-0.7,3.8-2.4,4.7c-0.6,0.3-1.4,0.5-2,0.5c-0.7,0-1.5-0.2-2.1-0.5
			c-1.1,2.4-2.2,4.8-3.3,7.4c-2.1,5.2-4.1,10.8-5.9,16.9c-4.9,15.6-5.4,20.8-5.4,22.4c0,1.5,0,2.7,0.1,3.8h5.8
			c0.8,0,1.6,0.1,2.4,0.4c-1.8-4.3-2.8-8.6-2.8-13.1c0-13.4,6.8-27.1,20.1-40.8c0.2-10,1.6-16.7,4.2-20.9c0-0.1,0.1-0.2,0.2-0.2
			c2.7-3.8,7.9-8.3,18.1-8.3c8.4,0,16.3,5.9,24.2,17.9c17.7,4.1,21.5,13.1,21.5,20.2c0,5-2.1,9.3-5.9,12.1c-1.4,1.1-3.7,2.5-6.4,2.5
			c-1.5,0-3.1-0.5-4.4-1.3c-1.9,11.4-6.2,22-13,31.5c1.9,5.2,2.8,11.4,2.8,18.6v0.4c6,2.9,11.1,6.6,15.4,11c6.2,6,9.4,12.2,9.4,18.3
			c0,3.3-0.5,5.9-1.5,8c-1.7,3.5-5,5.7-8.8,5.7c-3.7,0-6.7-2.4-8-6.4l-0.4-1.3c-0.5-1.4-0.2-2.9,0.6-4.1l0.8-1.1
			c0.7-0.9,0.7-1.3,0.7-1.4c0-0.9-1.1-2.8-4.3-5.3c-1.7-1.4-3.6-2.6-5.5-3.6c-3.2,15.4-9.9,30.3-19.8,44.6
			c-11.9,16.8-26.9,30.3-44.5,40.2C309.6,681.6,290.8,686.7,271.6,686.7z M361.2,580.9c-15.8,0-31.6,2-46.9,6
			c-15.3,4.1-28.5,9.4-39.3,15.7c-10.7,6.2-19.2,12.9-25.5,19.9c0,0-0.1,0.1-0.1,0.1c-2.9,3.2-5.1,6.5-6.5,9.9
			c-1.4,3.3-2.1,6.4-2.1,9.3c0,5.5,2,9.8,6.4,13.7c4.4,4,11.1,6,19.6,6c11.4,0,22.6-2.2,33.4-6.5c10.9-4.4,21.8-11.2,32.2-20.4
			c17.9-15.9,30.3-33.9,36.7-53.5C366.9,581,364.2,580.9,361.2,580.9z M340.2,557.4c0,1.2-0.2,2.3-0.4,3.4c1.1-0.1,2.2-0.2,3.2-0.3
			C342.1,559.6,341.1,558.5,340.2,557.4z M361.7,526.8c-0.6,1.1-1.1,2.2-1.7,3.4c-2.4,5.3-3.7,9.9-3.7,13.7c0,6.4,1.7,6.4,3.3,6.4
			c3.4,0,6.7-3.2,9.1-6.5L361.7,526.8z M225.3,521.3c-6,8-9,15.4-9,22.1c0,7,1.8,7,3.3,7c4.2,0,9.1-4.6,13.9-13
			c5.6-10.1,8.5-19.9,8.5-28.8c0-0.7,0-1.3-0.1-1.9c-1,0.5-2,1.1-3,1.7c0.7,1.3,1.1,2.7,1.1,4.3c0,4.6-3.2,9.2-10.5,9.2
			C228.1,521.8,226.7,521.6,225.3,521.3z M374,511.7c1,2.4,2.7,6.2,5.7,12.7c1.4-4.4,2.1-8.9,2.1-13.6c0-1.1,0-2.1-0.1-3.1
			c-1.4,0.7-2.9,1.5-4.6,2.4C375.8,510.7,374.7,511.3,374,511.7z M767,623.9c-8.7,0-11.8-5.1-11.8-9.4c0-4.2,2.8-7.1,8.3-8.8
			c3.7-1.3,6.5-2.4,8.4-3.3c1.4-0.7,2.6-1.2,3.4-1.6c6.1-5.6,12.5-13.9,19-24.9c2.7-4.5,5.3-9.5,8-14.9c-4.6,3.2-9.2,6-13.8,8.4
			c-13.3,6.8-27.1,10.3-40.9,10.3c-15.7,0-28.4-4.4-37.9-13.1c-9.7-9-14.5-20.6-14.5-34.4c0-6.9,0.9-13.7,2.7-20.4
			c1.8-6.6,4.2-12.8,7.2-18.4c6.6-12.3,15.2-23.5,25.7-33.6c10.5-10.1,23.1-18.4,37.3-24.8c7.9-3.7,15.7-6.3,23.3-7.8
			c7.5-1.5,14.5-2.2,20.8-2.2c5.5,0,10.6,0.5,15.4,1.4c2.3,0.5,4.5,1,6.5,1.6l1.8-3c0.1-0.1,0.2-0.3,0.3-0.4l0.1-0.1
			c4.1-5.7,9.7-8.7,16.2-8.7c3,0,5.4,0.4,7.3,1.2c3.6,1.6,5.8,4.7,5.8,8.5c0,3-1.8,5-3.4,6.7c-1.1,1.2-2.6,2.8-4.7,4.8l-2.7,2.7
			c0.1,0.1,0.1,0.1,0.2,0.2c2.7,2.7,4.6,4.8,4.6,8c0,2.9-1,4-5.2,9c-2.3,2.7-4.5,5.5-6.7,8.4c-4.3,5.5-6.4,8.7-7.4,10.4
			c0,0.1,0,0.2,0,0.3v1.1c0,4.8-3.6,8.4-8.4,8.4c-4,0-7.4-2.1-9.3-5.9c-1.2-2.3-1.7-5.3-1.7-9c0-8.6,1.7-17.3,5-25.9
			c-3.7-1.1-7.7-1.7-11.9-1.7c-14.2,0-28.9,4.6-43.7,13.8c-14.8,9-27.2,20.5-37,34.3c-4.8,6.9-8.4,13.5-10.6,19.7
			c-2.1,6-3.2,11.6-3.2,16.9c0,9.3,2.9,16.5,9.2,22.5c6.1,5.9,14.8,8.9,25.7,8.9c18.3,0,38.9-12.9,61.4-38.5c0,0,0.1-0.1,0.1-0.1
			c1.3-1.4,2.5-2.7,3.5-3.9c-7.4,1.4-13.8,2.5-19.2,3.3c-9,1.4-15.3,2-19.2,2c-2.9,0-7.3-1-11.2-5.7c-2.8-3.4-4.3-7.6-4.3-12.6
			c0-4.6,3.5-8.1,8.1-8.1h0.1c0.1,0,0.3,0,0.4,0l15.1,1.5c16.8,0,30.3-0.4,40.1-1.2c2.8-4.8,6.7-5.6,9-5.6c2,0,4.1,0.5,6.3,1.7
			c0.8,0.4,1.7,0.9,2.6,1.4l5.5-0.9c0.2,0,0.5-0.1,0.7-0.1h0.2c5.5,0,8.7,3.7,9.1,7.6c1.2-2.9,2.4-5.9,3.8-9c0.3-1.4,0.9-3,2-5.1
			c1.4-2.8,2.4-4.4,3.5-5.5c2.6-2.6,6-3.9,10-3.9c9.9,0,15.5,3.1,16.8,9.3l0.1,0.7c1-5.2,3.6-10,8-14.3c5.5-5.4,12.4-8.2,20.3-8.2
			c12.1,0,21.3,5.5,26.9,16.1c1.3-0.8,2.9-2.3,4.8-4.7c3.9-4.9,7.7-11.9,11.2-20.8c0-0.1,0.1-0.2,0.1-0.2c1.4-3.1,4.3-9.4,10.4-9.4
			c3.7,0,6.8,2.1,8.3,5.7c0.2,0.6,0.5,1.2,0.6,1.9c0,0,0,0,0.1-0.1c3.5-3.4,7.2-7.6,11-12.4l0.8-1c0.9-1.1,2.2-1.7,3.5-1.7h1.3
			c3.8,0,7.6,2.9,7.6,8.4v0.2c0,0.3,0,0.5-0.1,0.8l-1.3,7.7c-1.1,6.7-3.1,11.8-6.3,15.5c-4.6,5.4-9.4,6.6-12.7,6.6
			c-3,0-5.9-0.5-8.4-1.5c-0.2,0.5-0.5,0.9-0.7,1.4c8.9,0.3,14,3.4,15.3,9.2l0.2,1c0.2,1.1,0,2.3-0.6,3.3l-0.5,0.9
			c-2.6,4.2-5.1,9.1-7.5,14.7c-2.4,5.7-4.9,12.1-7.2,19c-2.5,7.4-4.3,13.5-5.4,18.2c-0.6,2.6-1,4.7-1.2,6.3c0.5-0.5,1-0.8,1.3-1.1
			c1-0.9,1.8-1.6,2.7-2.2l0.7-0.5c0.8-0.6,1.7-0.9,2.7-0.9h0.9c4.6,0,8.1,3.5,8.1,8.1c0,6.1-5.6,10.2-11.1,13.4
			c-6.5,3.8-10.7,5.4-14.3,5.4c-5.6,0-10.3-2.4-13.3-6.6c-2.5-3.6-3.7-8.5-3.7-14.8c0-2.2,0.1-4.6,0.3-7c-0.9,1.7-1.9,3.3-2.9,4.9
			c0,0,0,0.1-0.1,0.1c-8.7,13-19.9,19.6-33.3,19.6c-10.8,0-18.8-3.8-23.4-10.9c-1.8,4-6,7-10.2,9.4c-6.5,3.8-10.7,5.4-14.3,5.4
			c-5.6,0-10.3-2.4-13.3-6.6c-2.5-3.6-3.7-8.5-3.7-14.8c0-11.7,3.2-26.1,9.4-43.1c-2.1,1.7-5.1,2.6-7.8,3.2
			c-12.3,30.4-26.2,56.6-41.3,77.9C793.8,612.5,779.8,623.9,767,623.9z M920.9,521.3c-6,8-9,15.4-9,22.1c0,7,1.8,7,3.3,7
			c4.2,0,9.1-4.6,13.9-13c5.6-10.1,8.5-19.9,8.5-28.8c0-0.7,0-1.3-0.1-1.9c-1,0.5-2,1.1-3,1.7c0.7,1.2,1.1,2.7,1.1,4.3
			c0,4.6-3.2,9.2-10.5,9.2C923.8,521.8,922.4,521.6,920.9,521.3z M898.4,490.2l-0.5,0.9c-2.6,4.2-5.1,9.1-7.5,14.7
			c-2.4,5.7-4.9,12.1-7.2,19c-2.5,7.4-4.3,13.5-5.4,18.2c-0.6,2.6-1,4.7-1.2,6.3c0.5-0.5,1-0.8,1.3-1.1c1-0.9,1.8-1.6,2.7-2.2
			l0.7-0.5c0.8-0.6,1.7-0.9,2.7-0.9h0.9c1.1,0,2.1,0.2,3,0.5c-0.3-2.1-0.5-4.3-0.5-6.7c0-6.8,1.5-14,4.6-21.5
			c2.3-5.7,5.1-10.7,8.3-14.9c-1.1-3.3-1.7-7-1.7-11c0-0.3,0-0.7,0-1C898.4,490,898.4,490.1,898.4,490.2z M960.9,506.7
			c0.1-0.4,0.3-0.8,0.4-1.2c-0.1,0-0.3,0-0.4,0.1C960.9,505.7,960.9,506.4,960.9,506.7z M454.4,581.1c-6.6,0-22-2.6-22-26.9
			c0-7.9,3.5-19.9,11-37.7c3.6-8.5,7.7-16.9,12.2-24.9c4.5-7.9,9.5-15.6,14.6-22.7c4.9-6.6,9.4-11.7,13.8-15.5l-44.6-9
			c-4.6-0.9-8.2-1.6-11-2.3c-2.5-0.6-5.9-1.2-10.1-1.9c0,0-0.1,0-0.1,0c-3.6-0.7-7.1-1.1-10.4-1.3c-3.4-0.2-6.8-0.4-10-0.4
			c-1.2,0-2,0.1-2.6,0.1c1,2.3,4,6.1,13.4,11.3c6.8,3.7,12.3,6.2,16.3,7.3c3.3,0.9,6.1,1.4,8.2,1.4c0.2,0,0.5,0,0.7,0l5-0.3
			c0.1,0,0.2,0,0.4,0c5.9,0,8.9,4.1,8.9,8.1c0,2.3-1,9.7-13.4,9.7c-12,0-24.6-3.8-37.5-11.4c-14.3-8.5-21.5-17.9-21.5-28
			c0-7,2-12.5,5.9-16.4c3.9-3.9,9.4-5.9,16.4-5.9c1.2,0,2.6,0,4.3,0.1c2.1,0.1,3.9,0.4,5.5,0.9c28.5,7.2,53.4,12.8,74.2,16.6
			c20.6,3.8,37.4,5.7,50.2,5.7c12,0,15.6-2.3,16.1-2.9c-0.1-0.1-0.3-0.4-0.8-0.7c-1.4-1-4-2.6-9.1-4.4c0,0-14.2-5.5-14.2-5.5
			c-2.8-1.1-4.5-3.7-4.5-6.6c0-3.9,2.7-8.4,10.5-8.4c8.4,0,17.1,3.6,26,10.7c9.4,7.5,14.1,15.3,14.1,23.3c0,3.1-0.8,5.8-2.3,8.3
			l-0.6,3.6c-1.1,6.7-3.1,11.8-6.3,15.5c-4.6,5.4-9.4,6.6-12.7,6.6c-5.5,0-10.3-1.6-14-4.8c-1.7-1.4-2.6-3.6-2.5-5.8
			c0.1-2.2,1.3-4.2,3.1-5.5c0.3-0.2,0.6-0.4,0.9-0.7c-6.7-0.2-13-0.7-18.8-1.4c-0.6-0.1-1.2-0.2-1.8-0.2c-0.3,0.8-0.7,1.8-1.2,3.1
			c-0.4,0.9-0.9,1.6-1.5,2.3L496,480.6c-28.3,31.4-42.6,59.4-42.6,83.2c0,0.1,0,0.1,0,0.2c0.1,0,0.3,0,0.4,0c2.7,0,5.8-0.9,9-2.7
			l6.5-3.6c1.1-0.6,2.3-0.9,3.5-0.9c5.3,0,8.1,3.9,8.1,7.6c0,8-9.2,11.5-12.8,12.8C462,579.9,457.7,581.1,454.4,581.1z M523.2,572.2
			c-5.6,0-10.3-2.4-13.3-6.6c-2.5-3.6-3.7-8.5-3.7-14.8c0-15.2,5.3-35,15.8-59c0.3-1.4,0.9-3,2-5.1c1.4-2.8,2.4-4.4,3.5-5.5
			c2.6-2.6,6-3.9,10-3.9c9.9,0,15.5,3.1,16.8,9.3c0.4,1.8,0.1,3.7-0.9,5.2c-2.6,4.2-5.1,9.1-7.5,14.7c-2.4,5.7-4.9,12.1-7.2,19
			c-2.5,7.4-4.3,13.5-5.4,18.2c-0.6,2.6-1,4.7-1.2,6.3c0.5-0.5,1-0.8,1.3-1.1c1-0.9,1.8-1.6,2.7-2.2c1.2-0.9,2.7-1.4,4.3-1.4
			c0.3,0,0.5,0,0.7,0c0-0.6,0-1.2,0-1.8c0-12,5.7-26.3,16.9-42.6c0,0,0-0.1,0.1-0.1c6.6-9.3,13.1-16,19.6-20.2c-0.4,0-0.7,0-1,0
			c-2.7,0-5.1-1.2-6.6-3.3c-1.6-2.2-1.9-5-0.9-7.9c0.8-2.5,2-4.3,15.9-14.1c0,0,0.2-0.1,0.2-0.1c3.5-2.2,6.5-4.2,9.3-6.1
			c4.6-3,6.1-3.7,7.5-4.1c0.6-0.1,1.2-0.2,1.8-0.2c1.4,0,2.8,0.4,4,1.3l0.7,0.5c1,0.7,1.9,1.7,2.4,2.8c2,4.2,6.1,10.1,12.2,17.3
			c0.7,0.9,1.3,1.9,1.5,3l0.1,0.6c1.3-0.4,2.7-0.6,4.3-0.6c22.2,0,24.6,15,24.6,21.4c0,0.9-0.1,2.1-0.5,4
			c8.3-9.7,12.6-12.3,16.4-12.6c3.2-4.2,6.8-6.3,10.8-6.3h1.3c12.1,0,15.5,5.1,16.1,9.4c0.4,2.4-0.5,4.8-2.3,6.4
			c-2.2,4-4.4,8.5-6.4,13.5c-2.1,5.2-4.1,10.8-5.9,16.9c-4.9,15.6-5.4,20.8-5.4,22.4c0,2.9,0.2,5,0.4,6.5c1.3-1.7,3.4-2.7,5.6-2.7
			c3.8,0,7.9,2.9,7.9,9.2c0,8.4-5.9,13.9-14.9,13.9c-7.5,0-13.7-3.6-18-10.3c-3.5-5.5-5.3-13.2-5.3-23.3c0-4.4,0.6-9.5,1.7-15.2
			c-8.4,11.8-14.7,22.5-19,31.9c0,0-2.3,6.6-2.3,6.6c-1.7,4.7-5.8,7.5-11.1,7.5c-3,0-6-0.8-8.6-2.5c-4.2-2.6-5.6-5.7-5.9-7.9
			c-0.1-0.4-0.1-0.8-0.1-1.2c0-2,0.5-5.4,3.3-15.2c-15.6,19.7-28.8,29-41,29c-11.4,0-19.8-3.8-24.6-10.8c-2.1,2.5-5.2,4.6-8.3,6.4
			C531,570.6,526.7,572.2,523.2,572.2z M566.4,551c0.2,0,0.4,0,0.5,0c4.4,0,9.9-2.7,15.8-7.8c2.3-2.1,4.8-4.6,7.4-7.3
			c2.9-3,5.9-6.2,9.1-9.4c10.8-11.7,11.7-12.6,15.3-12.6c2,0,3.7,0.5,5,1.4c3.4-11.8,5.3-21.1,5.6-27.8c-3.5-0.5-6.2-2.9-7-6.1
			c-0.5,0.1-0.9,0.1-1.4,0.1c-0.4,0-0.8,0-1.2-0.1c-1.9-0.3-4-1.3-6.8-3c-2.1-1.3-4.2-2.9-6.3-4.6c-0.1-0.1-0.2-0.2-0.3-0.3
			c-1.8-1.8-3.4-3.3-4.6-4.7c-5.5,3.8-9.3,6.4-12.1,8.2c3-1,6.1-1.6,9.1-1.6c5.9,0,11.1,1.9,15.6,5.7c4.8,4,7.4,9.3,7.4,15.2
			c0,8.6-5,17.1-14.9,25.1c-9.3,7.4-18.7,11.2-28.2,11.2c-1.5,0-2.8-0.2-3.9-0.6c-3,6.3-4.6,11.7-4.6,15.9
			C565.9,549.7,566.2,550.6,566.4,551z M593.3,501.8c-2.8,2.3-5.4,5-7.9,7.8C589.2,507.1,591.7,504.4,593.3,501.8z M892.5,476.7
			c-5.5,0-10.3-1.6-14-4.8l-2.6-2.2c-1.1-0.9-1.6-2.3-1.6-3.7s0.8-2.7,2-3.5l2.8-1.9c2.9-2,6.2-4.7,9.6-8.1c3.5-3.4,7.2-7.6,11-12.4
			l0.8-1c0.9-1.1,2.2-1.7,3.5-1.7h1.3c3.8,0,7.6,2.9,7.6,8.4v0.2c0,0.3,0,0.5-0.1,0.8l-1.3,7.8c-1.1,6.7-3.1,11.8-6.3,15.5
			C900.7,475.6,895.8,476.7,892.5,476.7z M924.8,458.8c-3.9,0-8.1-2.9-8.1-8.4c0-3.4,1.9-5.7,6.3-9.5c2.7-2.3,6.7-5.5,11.9-9.5
			c17.3-13.2,18.3-13.2,21-13.2c5.6,0,9.7,4.2,9.7,10c0,3.8-1.3,7.1-3.6,9.5l-0.2,0.2c-0.2,0.2-0.4,0.4-0.7,0.6l-0.2,0.1
			c-0.5,0.3-1.8,1.2-4.1,2.8c-2.4,1.7-6.6,4.3-12.4,7.8c-4,2.3-7.6,4.4-10.8,6.2C928.1,458.2,926.8,458.8,924.8,458.8z"/>
		<path class="st5" d="M529.9,414c7.3,0,15.2,3.3,23.2,9.7c8.3,6.6,12.4,13.2,12.4,19.8c0,2.5-0.7,4.7-2.1,6.5l-0.8,4.6
			c-1,5.9-2.7,10.3-5.3,13.4c-2.8,3.3-5.9,5-9.3,5c-4.4,0-8.2-1.3-11.1-3.8c-0.6-0.5-0.9-1.3-0.9-2.1c0-0.8,0.5-1.6,1.1-2
			c3.1-2.2,6.6-5,10.2-8.6c0.1-0.1,0.3-0.3,0.4-0.4c-1.5,0.1-3,0.2-4.7,0.2h-1c-8.9,0-17.2-0.5-24.7-1.5c-2.3-0.3-4.5-0.6-6.6-0.9
			c0.3,0.8,0.3,1.6,0.3,2.1c0,0.6-0.1,0.9-1.5,4.4c-0.1,0.3-0.3,0.6-0.6,0.8l-16.4,16.4c-29.1,32.3-43.8,61.4-43.8,86.3
			c0,3.4,1.3,4.7,4.9,4.7c3.5,0,7.3-1.1,11.2-3.3l6.5-3.6c0.4-0.2,0.8-0.3,1.3-0.3c2.5,0,3.6,1.6,3.6,3.1c0,4.4-5.3,6.9-10,8.7
			c-5.6,2.4-9.5,3.6-12.2,3.6c-8,0-17.5-3.9-17.5-22.4c0-7.2,3.5-18.9,10.6-35.9c3.5-8.4,7.5-16.6,12-24.4
			c4.5-7.8,9.3-15.3,14.4-22.3c8-10.8,15.1-17.5,21.5-20.5L440.3,440c-4.6-0.9-8.2-1.6-10.9-2.2c-2.6-0.6-6.1-1.2-10.4-1.9
			c0,0,0,0-0.1,0c-3.7-0.7-7.4-1.1-10.8-1.4c-3.5-0.3-7-0.4-10.4-0.4c-5,0-7.6,1-7.6,2.9c0,5.4,5.4,11.1,16.1,17
			c7.1,3.9,12.9,6.5,17.2,7.7c3.7,1.1,6.9,1.6,9.4,1.6c0.3,0,0.6,0,0.9,0l4.9-0.3c0,0,0.1,0,0.1,0c3.3,0,4.4,2,4.4,3.6
			c0,2.4-1.5,5.2-8.9,5.2c-11.2,0-23-3.6-35.2-10.8c-12.8-7.6-19.2-15.7-19.2-24.1c0-5.7,1.5-10.2,4.5-13.2c3-3,7.4-4.5,13.2-4.5
			c1.1,0,2.4,0,4.1,0.1c1.8,0.1,3.2,0.3,4.5,0.7c28.6,7.2,53.7,12.9,74.6,16.7c20.8,3.9,38,5.8,51,5.8c9.4,0,20.6-1.3,20.6-7.6
			c0-0.6,0-2.3-2.7-4.3c-2.3-1.7-5.7-3.4-10.2-5c0,0,0,0,0,0l-14.1-5.5c-1-0.4-1.7-1.4-1.7-2.4C523.9,416.5,524.7,414,529.9,414
			 M852.2,420.4c2.4,0,4.2,0.3,5.5,0.9c1.9,0.8,3.1,2.4,3.1,4.3c0,1.2-0.6,2-2.2,3.7c-1,1.1-2.5,2.7-4.6,4.7l-4.8,4.8l-1.1,1.1
			l-0.1,0.1c1.3,1,2.5,2,3.6,3.1c2.6,2.6,3.2,3.6,3.2,4.8c0,1.1-0.1,1.4-4.1,6.1c-2.3,2.8-4.6,5.6-6.8,8.5c-6.2,7.9-8.1,11.4-8.8,13
			l0.5,0.5v1.1c0,2.3-1.6,3.9-3.9,3.9c-2.3,0-4.2-1.2-5.3-3.4c-0.8-1.7-1.3-4-1.3-7c0-9.5,2.2-19,6.4-28.5
			c-5.4-2.4-11.5-3.6-17.9-3.6c-15.1,0-30.6,4.9-46.1,14.5c-15.3,9.3-28.1,21.3-38.3,35.5c-5.1,7.2-8.8,14.2-11.1,20.8
			c-2.3,6.5-3.5,12.6-3.5,18.4c0,10.5,3.4,18.9,10.5,25.7c7,6.8,16.7,10.2,28.8,10.2c19.6,0,41.4-13.5,64.7-40l0,0l0,0
			c2.2-2.4,4.1-4.5,5.5-6.2c1.3-1.6,2.3-3,2.9-4l1-3c-11.7,2.3-21.5,4.1-29.1,5.2c-8.8,1.3-14.9,2-18.5,2c-2.9,0-5.5-1.4-7.7-4.1
			c-2.1-2.6-3.2-5.8-3.2-9.7c0-2.1,1.5-3.6,3.6-3.6h0.1l0.1,0l15.2,1.5c18.5,0,33.1-0.5,43.3-1.4c1.4-3.6,3.5-5.4,6.1-5.4
			c1.3,0,2.7,0.4,4.3,1.2c1.1,0.5,2.4,1.2,3.8,2.1l6.9-1.1l0.2,0h0.2c3.5,0,4.7,2.2,4.7,4.2c0,2.8-2.9,3.9-9.3,5.2
			c-12.4,31.1-26.4,57.7-41.7,79.2c-16,22.8-29.1,33.9-40.2,33.9c-6.6,0-7.3-3.5-7.3-4.9c0-2.9,3.6-4.1,5.2-4.6
			c3.9-1.4,6.9-2.5,8.9-3.5c1.8-0.8,3.1-1.5,4-1.9c6.6-5.9,13.5-14.7,20.3-26.4c5.4-9.1,10.9-20.1,16.3-32.7
			c-9.2,8.4-18.6,15.1-28,20c-12.7,6.5-25.8,9.8-38.9,9.8c-14.5,0-26.2-4-34.9-11.9c-8.7-8.1-13.1-18.6-13.1-31.1
			c0-6.5,0.9-12.9,2.6-19.2c1.7-6.2,4-12.1,6.9-17.5c6.4-11.8,14.7-22.7,24.9-32.4c10.1-9.7,22.3-17.8,36-23.9
			c7.6-3.5,15.1-6.1,22.3-7.5c7.2-1.4,13.9-2.1,19.9-2.1c5.2,0,10,0.5,14.5,1.4c3.5,0.7,6.6,1.6,9.4,2.7l3.5-6.1l0.1-0.1l0.1-0.1
			C842.9,422.7,847.1,420.4,852.2,420.4 M955.8,422.7c3.2,0,5.2,2.1,5.2,5.5c0,2.6-0.8,4.7-2.3,6.3l-0.2,0.2l-0.2,0.1
			c-0.5,0.3-1.9,1.3-4.1,2.8c-2.3,1.6-6.4,4.2-12.1,7.7c-3.9,2.3-7.4,4.3-10.6,6c-5.4,2.9-5.9,2.9-6.6,2.9c-1.8,0-3.6-1.2-3.6-3.9
			c0-1.4,0.7-2.6,4.7-6.1c2.6-2.2,6.5-5.4,11.7-9.3C953.7,422.7,954.6,422.7,955.8,422.7 M81.2,424.8c2.6,0,5.4,0.6,8.4,1.7
			c3.8,1.5,5.7,3.5,5.7,6.1v0.7l-0.4,0.6c-8.9,14.7-16.4,27.2-22.4,37.5c5.9-6.5,11.5-11.9,17-16.2c11.5-9.1,22.4-13.8,32.4-13.8
			c5.4,0,9.5,1.6,12.3,4.9c2.7,3.1,4.1,7.7,4.1,13.6c0,12.1-6,31-18.4,57.7c2.5-2.4,5.2-5,8.1-7.9c7.6-7.6,16.9-17,27.6-28
			c1-1.3,2.6-3.3,5-5.9c2.4-2.6,4.8-5.4,7.3-8.2l0,0l0,0c9.6-10.1,13.3-11.5,15.7-11.5c0.5,0,0.9,0.1,1.4,0.3c4.6-4.7,9.3-7,14-7
			c5.7,0,6.5,2.6,6.5,4.2c0,1,0,1.7-9.7,19.2c-16.4,29.7-24.7,54.9-24.7,75.1c0,13.1,2.2,17.7,4.2,17.7c0.1,0,1.8-0.1,5.4-5.7
			c2.9-4.4,6.3-11.2,10.1-20.1l0-0.1l0.1-0.1c1.3-2.5,2.9-4.8,5.2-4.8c0,0,0.1,0,0.2,0c0.4-5.2,1.8-10.6,4.1-16.2
			c2.5-6.3,5.6-11.5,9.3-15.7c-1.5-3.3-2.3-7.3-2.3-11.8c0-5.7,2.4-11,7-15.5c4.7-4.6,10.4-6.9,17.2-6.9c12,0,20.4,6.1,24.9,18.1
			c6.6,1.4,12.9,3.5,12.9,8c0,6-4,6.5-5.2,6.5h-0.2l-0.2,0l-3.2-0.5c0,0.5,0.1,1,0.1,1.4c0.1,1.5,0.1,2.7,0.1,3.8
			c0,14.7-3.8,28-11.4,39.7l0,0l0,0c-7.8,11.7-17.7,17.6-29.5,17.6c-11.9,0-19.5-5-22.4-14.7c-2.2,7.3-5,13-8.1,17.1
			c-4.3,5.6-9.6,8.5-15.6,8.5c-6,0-10.7-2.9-14-8.6c-3-5.2-4.5-11.7-4.5-19.3c0-3.4,0.3-7.2,0.8-11.2c0.5-4,1.2-8.4,2.1-13l0,0l0,0
			c1.1-5.1,2.3-10.3,3.7-15.5c1.4-5.2,3-10.6,4.7-16c1.5-4.6,3.1-9,5-13c-30.7,33.3-52.4,55.7-64.7,66.5l-4.7,9.9L102,554l-0.1,0.2
			c-1.8,2.5-5.2,3.7-10.5,3.7c-7.6,0-9-3.6-9.1-6c-0.1-0.8,0.2-1.5,0.5-2c0.2-0.5,0.5-1.1,0.9-2c0.8-1.7,2-4.2,3.7-7.5
			c3.2-6.6,8.2-16.6,14.7-29.8c13.1-26.3,19.8-43.7,19.8-52c0-4.7-1.9-4.7-3.1-4.7c-8.8,0-19.2,5.5-30.8,16.2
			c-5.8,5.5-11.6,11.8-17.2,18.8c-5.7,7.1-11.3,14.7-16.8,22.7c-7,10.4-12.2,20.3-15.5,29.5c-3.3,9.1-4.9,17.8-4.9,25.8
			c0,3.7,0.3,6.6,0.9,8.5c0.6,1.9,0.9,2.6,1.1,2.9c1,1,2.9,3,1.9,5.3c-0.4,1-1.4,2.1-3.9,2.1c-3.7,0-6.9-2.8-9.6-8.7
			c-2.4-5.1-3.6-11-3.6-17.4c0-12.3,3.7-28,10.9-46.6c7.1-18.4,18-40.2,32.2-64.8c0.7-1.4,1.6-3.1,2.7-5.3c1.1-2.2,2.6-4.8,4.4-7.8
			c1.5-2.6,3.1-4.9,4.9-6.8C77.5,426,79.4,424.8,81.2,424.8 M218,496.5c8.6-6.2,15-9.8,19.6-11c-2.1-3-5.2-4.4-9.5-4.4
			c-2.2,0-4,0.7-5.4,2.2c-1.6,1.7-2.8,3.8-3.6,6.1c-0.8,2.5-1.2,4.8-1.2,6.8C218,496.3,218,496.4,218,496.5 M230.6,508.8
			c0.6,0,0.8-0.1,0.9-0.1c2.3,0,3.9,1.6,3.9,3.9c0,1.1-0.4,4.7-6,4.7c-1.8,0-3.7-0.4-5.8-1.2c-7.9,9.7-11.9,18.9-11.9,27.3
			c0,10.2,4.2,11.5,7.8,11.5c6.1,0,12.1-5.2,17.8-15.3c6-10.8,9.1-21.3,9.1-31c0-3.1-0.4-5.8-1.2-8
			C240.7,501.6,235.8,504.4,230.6,508.8 M246.1,438l1,0.7l0.7,0.5l0.6,0.4l0.3,0.6c2.2,4.6,6.5,10.7,12.8,18.3l0.4,0.5l0.1,0.6
			l0.4,1.9l0.3,1.4l-1.1,1l-1.2,1.2l-0.9,0.9l-1.3-0.2c-1.3-0.2-2.9-1-5.1-2.4c-1.9-1.2-3.9-2.7-5.8-4.3l-0.1-0.1l-0.1-0.1
			c-2.2-2.1-3.9-3.9-5.3-5.5c-0.6-0.7-1.2-1.4-1.7-2c-19.6,13.6-20.6,13.6-21.8,13.6c-1.7,0-2.6-0.9-3-1.4c-0.7-1-0.8-2.3-0.3-3.9
			c0.4-1.1,0.8-2.5,14.2-11.8l0,0l0,0c3.5-2.3,6.5-4.3,9.4-6.2c4.4-2.9,5.4-3.3,6.1-3.5L246.1,438 M1006.1,442
			c0.3,0,3.1,0.1,3.1,3.9v0.2l0,0.2l-1.3,7.5c-1,5.9-2.7,10.3-5.3,13.4c-2.8,3.3-5.9,5-9.3,5c-4.1,0-7.6-1.1-10.4-3.2
			c-0.2,0.4-0.4,0.8-0.6,1.2c-3.6,7.8-8,13.8-13.1,17.7c-1.8,1.4-3.7,2.7-5.5,3.7c0.7,0.8,1.1,1.8,1.1,3c0,6-4,6.5-5.2,6.5h-0.2
			l-0.2,0l-3.2-0.5c0,0.5,0.1,1,0.1,1.4c0.1,1.5,0.1,2.7,0.1,3.8c0,14.7-3.8,28-11.4,39.7l0,0l0,0c-7.8,11.7-17.7,17.6-29.5,17.6
			c-15.5,0-23.7-8.6-23.7-24.7c0-6.2,1.4-12.9,4.2-19.9c2.5-6.3,5.6-11.5,9.3-15.7c-1.5-3.3-2.3-7.3-2.3-11.8c0-5.7,2.4-11,7-15.5
			c4.7-4.6,10.4-6.9,17.2-6.9c11.6,0,19.8,5.7,24.4,16.9c0.1,0,0.2,0,0.3,0c3.1,0,6.7-2.4,10.5-7.2c4.2-5.3,8.2-12.6,11.9-21.9
			l0-0.1l0-0.1c1.6-3.5,3.4-6.7,6.3-6.7c1.8,0,3.3,1.1,4.2,2.9c0.5,1.3,0.8,2.9,0.8,5.1c0,1.5-0.2,3.1-0.5,4.9
			c2.4-1.9,5-4.1,7.7-6.7c3.6-3.6,7.5-7.9,11.4-12.8l0.8-1H1006.1 M913.7,496.5c8.6-6.2,15-9.8,19.6-11c-2.1-3-5.2-4.4-9.5-4.4
			c-2.2,0-4,0.7-5.4,2.2c-1.6,1.7-2.8,3.8-3.6,6.1c-0.8,2.5-1.2,4.8-1.2,6.8C913.6,496.3,913.6,496.4,913.7,496.5 M926.3,508.8
			c0.6,0,0.8-0.1,0.9-0.1c2.3,0,3.9,1.6,3.9,3.9c0,1.1-0.4,4.7-6,4.7c-1.8,0-3.7-0.4-5.8-1.2c-7.9,9.7-11.9,18.9-11.9,27.3
			c0,10.2,4.2,11.5,7.8,11.5c6.1,0,12.1-5.2,17.8-15.3c6-10.8,9.1-21.3,9.1-31c0-3.1-0.4-5.8-1.2-8
			C936.4,501.6,931.5,504.4,926.3,508.8 M905.3,442c0.3,0,3.1,0.1,3.1,3.9v0.2l0,0.2l-1.3,7.5c-1,5.9-2.7,10.3-5.3,13.4
			c-2.8,3.3-5.9,5-9.3,5c-4.4,0-8.2-1.3-11.1-3.8l-2.6-2.2l2.8-1.9c3.1-2.2,6.6-5,10.2-8.6c3.6-3.6,7.5-7.9,11.4-12.8l0.8-1H905.3
			 M603.6,449.3c0.5,0,1,0.2,1.5,0.5l0.7,0.5c0.4,0.3,0.7,0.6,0.9,1c2.2,4.6,6.5,10.7,12.8,18.3c0.3,0.3,0.5,0.7,0.6,1.1l0.4,1.9
			c0.2,0.9-0.1,1.8-0.7,2.4l-1.2,1.2c-0.5,0.5-1.1,0.7-1.8,0.7c-0.1,0-0.3,0-0.4,0c-1.3-0.2-2.9-1-5.1-2.4c-1.9-1.2-3.9-2.7-5.8-4.3
			c0,0-0.1-0.1-0.1-0.1c-2.2-2.1-3.9-3.9-5.3-5.5c-0.6-0.7-1.2-1.4-1.7-2c-19.6,13.6-20.6,13.6-21.8,13.6c-1.7,0-2.6-0.9-3-1.4
			c-0.7-1-0.8-2.3-0.3-3.9c0.4-1.1,0.8-2.5,14.2-11.8c0,0,0,0,0.1,0c3.5-2.3,6.5-4.3,9.4-6.2c4.4-2.9,5.4-3.3,6.1-3.5
			C603.2,449.3,603.4,449.3,603.6,449.3 M374.5,469.6c7.1,0,14.1,5.7,21.4,17.5c13.1,2.6,19.7,8,19.7,16.2c0,3.6-1.4,6.5-4.1,8.5
			c-1.5,1.1-2.6,1.6-3.8,1.6c-1.6,0-3.4-1.2-3.4-3.8v-1.4l1.1-0.8c1.5-1,1.5-1.8,1.5-2c0-1.3,0-4.4-7-5.1v2.7
			c0,16.6-4.9,31.5-14.7,44.3c2.3,5,3.5,11.5,3.5,19.2v2.5c0,0.3,0,0.5,0,0.8c6.6,2.8,12.2,6.6,16.7,11.3c5.3,5.2,8.1,10.3,8.1,15.1
			c0,2.6-0.3,4.6-1,6c-1,2-2.6,3.1-4.7,3.1c-1,0-2.8-0.4-3.8-3.3l-0.4-1.3l0.8-1.1c1.1-1.5,1.6-2.8,1.6-3.9c0-2.8-2-5.8-6-8.9
			c-3.6-2.8-7.5-5-11.6-6.6c-2.5,16.8-9.3,33.1-20.1,48.5c-11.5,16.2-26,29.3-43,38.8c-17.2,9.7-35.2,14.7-53.6,14.7
			c-12.7,0-23.5-3.6-32-10.8c-8.7-7.3-13-17.4-13-30.1c0-12.5,7-25.2,20.9-37.6c13.4-11.8,30.4-21.4,50.6-28.6
			c19.5-7,39.2-10.6,58.7-10.6c7.9,0,14.9,0.6,20.8,1.9c0.2-0.9,0.3-1.8,0.3-2.6c0-3.6-0.3-6.2-0.7-8c-6.1,5-12,7.5-17.3,7.5
			c-6.4,0-12-3.1-16.6-9.1l0,0l0,0c-4.5-6-6.8-12.3-6.8-18.8c0-12.6,6.7-25.7,20.1-38.9c0.1-10.1,1.2-16.7,3.5-20.4l0-0.1l0-0.1
			C363.1,471.8,367.9,469.6,374.5,469.6 M366.7,489.1c3.8-2,7.5-3.1,11.1-3.5c-2.2-3.1-4.8-3.5-6.7-3.5
			C368.7,482.1,367.2,484.5,366.7,489.1 M379.8,535.3c4.3-7.6,6.5-15.9,6.5-24.5c0-3.5-0.4-6.7-1.3-9.6c-2.6,1.1-6,2.7-10,4.9
			c-4.3,2.2-5.9,3.4-6.5,4C369.1,511.8,371.4,517.5,379.8,535.3 M359.7,554.8c4.8,0,9.6-3.5,14.3-10.4l-11.4-27.2
			c-2.4,3-4.6,6.7-6.6,11.1c-2.7,5.9-4.1,11.1-4.1,15.6C351.9,553.6,356,554.8,359.7,554.8 M266.9,666c11.9,0,23.8-2.3,35.1-6.8
			c11.4-4.6,22.7-11.7,33.5-21.2c20.2-17.9,33.5-38.4,39.6-60.8c-1.3-0.2-2.8-0.3-4.4-0.5c-2.8-0.3-6-0.4-9.5-0.4
			c-16.2,0-32.4,2.1-48,6.2c-15.7,4.3-29.3,9.7-40.4,16.2c-11.1,6.4-20,13.4-26.6,20.8l0,0l0,0c-3.3,3.6-5.7,7.4-7.3,11.2
			c-1.6,3.8-2.4,7.5-2.4,11c0,6.8,2.6,12.3,7.9,17.1C249.6,663.6,257.2,666,266.9,666 M277.6,473.5c16.6,0,20.1,9.2,20.1,16.9
			c0,1.9-0.8,6.7-6.7,25.3c0.3-0.4,0.6-0.8,0.8-1.2c3.8-5.2,7.4-10,10.9-14.3c10.1-12.3,13.8-14,16.3-14h1.1l0.2,0.2
			c2.7-4.4,5.5-6.5,8.6-6.5h1.3c2.7,0,10.8,0,11.7,5.6l1.2,7.8l-3.5-3.4c-2.1,3.9-4.2,8.3-6.1,13.1c-2.1,5.3-4.2,11.1-6.1,17.3
			c-4.6,14.8-5.6,21-5.6,23.7c0,5,0.4,8.7,1.3,11c0.5,1.5,1.2,2.3,1.8,2.3c0,0,0.8-0.1,3-1.8c0.3-0.2,0.5-0.4,0.7-0.6l-2.6-2.6h6.2
			c0.8,0,3.4,0.3,3.4,4.7c0,6-3.8,9.4-10.4,9.4c-6,0-10.7-2.8-14.2-8.2c-3.1-4.8-4.6-11.7-4.6-20.9c0-8.6,2.3-20.2,6.9-34.4
			c0.2-0.6,0.4-1.3,0.6-1.9c-15.7,19.6-27,36.8-33.5,51.3l-2.3,6.7l0,0l0,0c-1.1,3-3.5,4.6-6.9,4.6c-2.2,0-4.3-0.6-6.3-1.8
			c-2.2-1.4-3.5-3-3.8-4.8l0-0.2v-0.2c0-2.1,0.9-7.7,8.7-32c5.6-17.7,8.5-31.1,8.5-39.9c0-1.4-0.2-2-0.3-2.2c-0.7-0.2-1.3-0.3-2-0.3
			h0c-0.1,0-0.3,0-0.4,0c-0.2,0-0.4,0-0.5,0c-2.8,0-4.1-1.9-4.1-3.8C271.1,477.3,271.6,473.5,277.6,473.5 M628.9,474.2
			c16.6,0,20.1,9.2,20.1,16.9c0,1.9-0.8,6.7-6.7,25.3c0.3-0.4,0.6-0.8,0.8-1.2c3.8-5.2,7.4-10,10.9-14.3c10.1-12.3,13.8-14,16.3-14
			c0.4,0,0.9,0.1,1.3,0.3c2.8-4.5,5.6-6.6,8.6-6.6h1.3c2.7,0,10.8,0,11.7,5.6c0.2,1.1-0.4,2.2-1.4,2.7c0,0.1,0,0.1-0.1,0.2
			c0,0.1-0.1,0.2-0.2,0.4c-2.4,4.2-4.6,9-6.8,14.3c-2.1,5.3-4.2,11.1-6.1,17.3c-4.6,14.8-5.6,21-5.6,23.7c0,5,0.4,8.7,1.3,11
			c0.8,2.3,1.6,2.3,1.8,2.3c0,0,0.8-0.1,3-1.8c1.2-0.9,1.7-1.4,2-1.6c0.4-0.9,1.3-1.5,2.4-1.5c0.8,0,3.4,0.3,3.4,4.7
			c0,6-3.8,9.4-10.4,9.4c-6,0-10.7-2.8-14.2-8.2c-3.1-4.8-4.6-11.7-4.6-20.9c0-8.6,2.3-20.2,6.9-34.4c0.2-0.6,0.4-1.3,0.6-1.9
			c-15.8,19.6-27,36.9-33.5,51.3l-2.3,6.7c0,0,0,0,0,0c-1.1,3-3.5,4.6-6.9,4.6c-2.2,0-4.3-0.6-6.3-1.8c-2.2-1.4-3.5-3-3.8-4.8
			c0-0.1,0-0.3,0-0.4c0-2.1,0.9-7.7,8.7-32c5.6-17.7,8.5-31.1,8.5-39.9c0-1.4-0.2-2-0.3-2.2c-0.7-0.2-1.3-0.3-2-0.3
			c-0.1,0-0.3,0-0.4,0c-0.2,0-0.4,0-0.5,0c-2.8,0-4.1-1.9-4.1-3.8C622.4,478,622.9,474.2,628.9,474.2 M594.5,479.7
			c4.8,0,9.1,1.6,12.7,4.6c3.8,3.2,5.8,7.2,5.8,11.8c0,7.2-4.4,14.5-13.2,21.6c-8.4,6.8-17,10.2-25.3,10.2c-4.6,0-4.9-2.8-4.9-3.6
			c0-0.1,0-0.1,0-0.2c-5.4,9.4-8.1,17.4-8.1,23.6c0,7.8,3.7,7.8,5.5,7.8c5.6,0,11.9-3,18.8-9c2.3-2.2,4.9-4.7,7.7-7.6
			c2.9-3,6-6.2,9.1-9.5c10.4-11.2,10.7-11.2,12.1-11.2c2.9,0,4.2,1.9,4.2,3.8c0,1.2-0.3,2.3-0.8,3.4c-0.1,0.1-0.1,0.2-0.2,0.3
			c-18.9,27.6-34.5,41-47.5,41c-16.2,0-24.7-8-24.7-23.2c0-11.1,5.4-24.6,16.1-40c0,0,0,0,0,0C573.1,487.4,583.8,479.7,594.5,479.7
			 M571.5,520.7c0.2-0.1,0.4-0.2,0.6-0.3c18.9-5.9,28.1-15.2,28.1-28.3c0-0.2,0-0.3,0-0.4c-1,0.3-3.3,1.4-8.3,5.3
			c-4.2,3.4-8.1,7.3-11.7,11.6C577.1,512.5,574.1,516.6,571.5,520.7 M982.7,481.1c2.8,0,11.2,0,12.4,5.7l0.2,1l-0.5,0.9
			c-2.7,4.4-5.3,9.5-7.8,15.3c-2.5,5.8-5,12.3-7.4,19.4c-2.6,7.5-4.4,13.8-5.5,18.6c-1.1,4.7-1.6,8.5-1.6,11.3c0,3,0.6,3.8,0.7,3.9
			c0,0,0,0,0.1,0c0.4,0,1.7-0.2,4.4-2.3c1.9-1.6,3.2-2.6,3.9-3.3c0.9-0.8,1.6-1.4,2.4-2l0.7-0.5h0.9c2.1,0,3.6,1.5,3.6,3.6
			c0,3-2.7,6-8.8,9.5c-5.6,3.3-9.4,4.8-12,4.8c-4.1,0-7.4-1.6-9.6-4.7c-2-2.9-2.9-6.9-2.9-12.2c0-14.6,5.3-34,15.7-57.7
			c0.2-1.1,0.7-2.4,1.7-4.4c1.4-2.9,2.2-3.8,2.7-4.3C977.6,482,979.9,481.1,982.7,481.1 M881.9,481.1c2.8,0,11.2,0,12.4,5.7l0.2,1
			l-0.5,0.9c-2.7,4.4-5.3,9.5-7.8,15.3c-2.5,5.8-5,12.3-7.4,19.4c-2.6,7.5-4.4,13.8-5.5,18.6c-1.1,4.7-1.6,8.5-1.6,11.3
			c0,3,0.6,3.8,0.7,3.9c0,0,0,0,0.1,0c0.4,0,1.7-0.2,4.4-2.3c1.9-1.6,3.2-2.7,3.9-3.3c0.9-0.8,1.6-1.4,2.4-2l0.7-0.5h0.9
			c2.1,0,3.6,1.5,3.6,3.6c0,3-2.7,6-8.8,9.5c-5.6,3.3-9.4,4.8-12,4.8c-4.1,0-7.4-1.6-9.6-4.7c-2-2.9-2.9-6.9-2.9-12.2
			c0-14.6,5.3-34,15.7-57.7c0.2-1.1,0.7-2.4,1.7-4.4c1.4-2.9,2.2-3.8,2.7-4.3C876.8,482,879.1,481.1,881.9,481.1 M537.5,481.7
			c2.8,0,11.2,0,12.4,5.7c0.1,0.7,0,1.3-0.3,1.9c-2.7,4.4-5.3,9.5-7.8,15.3c-2.5,5.8-5,12.3-7.4,19.4c-2.6,7.5-4.4,13.8-5.5,18.6
			c-1.1,4.7-1.6,8.5-1.6,11.3c0,3,0.6,3.8,0.7,3.9c0,0,0,0,0.1,0c0.4,0,1.7-0.2,4.4-2.3c1.9-1.6,3.2-2.6,3.9-3.3
			c0.9-0.8,1.6-1.4,2.4-2c0.5-0.3,1-0.5,1.6-0.5c2.1,0,3.6,1.5,3.6,3.6c0,3-2.7,6-8.8,9.5c-5.6,3.3-9.4,4.8-12,4.8
			c-4.1,0-7.4-1.6-9.6-4.7c-2-2.9-2.9-6.9-2.9-12.2c0-14.6,5.3-34,15.7-57.7c0.2-1.1,0.7-2.4,1.7-4.4c1.4-2.9,2.2-3.8,2.7-4.3
			C532.4,482.6,534.7,481.7,537.5,481.7 M220,567.3l0.6,0.3c1.7,0.8,3,2.9,1.8,6c-0.4,1.1-1.5,3.1-5.6,7.6c-2.9,3.1-5.5,4.6-8.1,4.6
			c-1.3,0-3.2-0.5-5-2.6c-1.3-1.6-1.9-3.3-1.9-5.1c0-2.5,2.1-4.7,7.2-7.8c2.2-1.4,3.8-2.1,5-2.4c1.1-0.3,2.8-0.5,5.3-0.6L220,567.3
			 M529.9,405c-10.3,0-15,6.7-15,12.9c0,4.8,2.9,9.1,7.4,10.8l12.6,4.9c-0.9,0-1.8,0-2.9,0c-12.4,0-29-1.9-49.3-5.7
			c-20.7-3.8-45.5-9.4-73.8-16.6c-1.9-0.6-4-0.9-6.4-1.1c-1.8-0.1-3.3-0.1-4.6-0.1c-8.2,0-14.8,2.4-19.5,7.2
			c-4.8,4.8-7.2,11.3-7.2,19.5c0,11.8,8,22.5,23.7,31.9c13.6,8,27,12,39.8,12c13.2,0,17.9-7.7,17.9-14.2c0-6.1-4.7-12.6-13.4-12.6
			c-0.2,0-0.4,0-0.6,0l-4.9,0.3c0,0,0,0-0.1,0c-0.1,0-0.3,0-0.4,0c-0.9,0-3.1-0.2-6.9-1.3c-2.5-0.7-7.3-2.5-15.4-7
			c-1.7-1-3.2-1.9-4.5-2.7c0.4,0,0.9,0.1,1.3,0.1c3.1,0.2,6.4,0.7,9.9,1.3c0.1,0,0.2,0,0.2,0c4.1,0.7,7.4,1.3,9.8,1.8
			c2.8,0.6,6.4,1.4,11.1,2.3l36.3,7.3c-2.7,2.9-5.4,6.3-8.2,10.1c0,0,0,0-0.1,0.1c-5.3,7.2-10.3,15-14.9,23.1
			c-4.7,8.1-8.9,16.7-12.5,25.4c-7.7,18.3-11.3,30.8-11.3,39.4c0,10.8,2.8,19.1,8.5,24.6c4.6,4.5,10.8,6.8,18,6.8
			c4,0,8.7-1.3,15.5-4.2c4.1-1.5,15.6-6.1,15.6-17c0-6.8-5.6-12.1-12.6-12.1c-2,0-3.9,0.5-5.7,1.5l-6.5,3.6
			c-0.9,0.5-1.7,0.9-2.5,1.2c2-21.5,15.8-46.6,41.1-74.8l16.2-16.2c1.1-1.1,1.9-2.3,2.5-3.7c3,0.4,6.2,0.7,9.5,0.9
			c-0.1,0.6-0.2,1.2-0.2,1.8c-0.2,2.8,0.7,5.6,2.5,7.8c-2,0.9-3.8,2.1-5.3,3.6c-1.5,1.5-2.8,3.4-4.4,6.7c-1.1,2.2-1.8,4-2.2,5.7
			c-10.7,24.4-16.1,44.8-16.1,60.5c0,7.3,1.5,12.9,4.5,17.3c3.8,5.5,9.9,8.6,17,8.6c4.4,0,9.3-1.8,16.5-6c1.9-1.1,3.8-2.3,5.6-3.7
			c5.8,5.6,14.3,8.7,25,8.7c10.4,0,21.3-5.8,33.2-17.8c0,0.4,0.1,0.9,0.1,1.3c0.5,3.1,2.3,7.6,8,11c3.4,2.1,7.1,3.1,11,3.1
			c7.1,0,13-4,15.3-10.5c0,0,0-0.1,0.1-0.2l2.2-6.3c2.3-5,5.1-10.4,8.6-16.1c0.3,9.9,2.2,17.7,6,23.5c5,8,12.8,12.4,21.8,12.4
			c11.6,0,19.4-7.4,19.4-18.4c0-0.6,0-1.3-0.1-1.9c2.6,5.1,6.1,9.7,10.5,13.9c0,0,0,0,0.1,0.1c10.3,9.5,24.1,14.3,40.9,14.3
			c14.6,0,29-3.6,43-10.8c0,0.1-0.1,0.1-0.1,0.2c-6.1,10.3-12,18.1-17.7,23.4c-0.7,0.4-1.7,0.8-2.8,1.3c-1.2,0.6-3.5,1.6-7.9,3.1
			c-9.9,3.1-11.4,9.5-11.4,13.1c0,6.7,5.1,13.9,16.3,13.9c14.4,0,29.5-12,47.5-37.8c12.1-17,23.4-37.1,33.8-60
			c-1.5,7.1-2.2,13.6-2.2,19.4c0,7.3,1.5,12.9,4.5,17.3c3.8,5.5,9.9,8.6,17,8.6c4.4,0,9.3-1.8,16.5-6c2.8-1.6,5.8-3.6,8.2-6
			c5.6,5.3,13.5,8.1,23.2,8.1c12.3,0,23.2-5.1,31.9-15c0.7,4,2,7.4,4,10.3c3.8,5.5,9.9,8.6,17,8.6c4.4,0,9.3-1.8,16.5-6
			c6.2-3.6,13.3-8.9,13.3-17.3c0-7.1-5.6-12.6-12.6-12.6h-0.9c-0.3,0-0.5,0-0.8,0c1-3.9,2.5-8.5,4.3-13.9c2.3-6.8,4.7-13.1,7.1-18.7
			c2.3-5.3,4.7-10.1,7.2-14.1l0.5-0.9c1.2-2,1.6-4.3,1.1-6.6l-0.2-1c-0.4-2-1.3-3.9-2.4-5.5c2.6-1.2,5.4-3.2,8.1-6.4
			c3.6-4.4,6-10.1,7.2-17.7l1.3-7.5l0-0.2c0.1-0.5,0.1-1,0.1-1.5v-0.2c0-8.4-6.2-12.9-12.1-12.9h-1.3c-2.7,0-5.3,1.3-7.1,3.4l-0.8,1
			c-2.2,2.8-4.4,5.3-6.5,7.6c-2.5-2.8-6.1-4.5-10-4.5c-9.1,0-13,8.8-14.5,12.1l0,0c0,0.1-0.1,0.2-0.1,0.3l0,0.1
			c-3.4,8.5-6.9,15.1-10.6,19.6c-0.1,0.2-0.3,0.3-0.4,0.5c-5.2-7-12.3-11.5-21-13c0.5-0.3,1.1-0.6,1.7-0.9c3.3-1.8,7-3.9,10.9-6.2
			c0,0,0.1,0,0.1,0c6-3.6,10.1-6.2,12.6-8c2.4-1.7,3.7-2.5,4-2.8l0.2-0.1c0.5-0.3,0.9-0.7,1.4-1.1l0.2-0.2c3.2-3.2,5-7.6,5-12.6
			c0-8.2-6.1-14.5-14.2-14.5c-4.4,0-6.6,1-23.7,14.1c-5.3,4-9.3,7.3-12.1,9.6c-1.3,1.1-2.5,2.2-3.5,3.3c-1.9-5.1-6.7-7.7-11.2-7.7
			h-1.3c-2.7,0-5.3,1.3-7.1,3.4l-0.8,1c-3.7,4.6-7.2,8.6-10.6,11.9c-3.2,3.2-6.3,5.7-9,7.6l-2.8,1.9c-2.3,1.6-3.8,4.1-3.9,6.9
			c-0.2,2.8,1,5.5,3.1,7.3l0.8,0.7c-1.9,0.9-3.6,2-5.1,3.5c-1.5,1.5-2.8,3.4-4.4,6.7c-1.1,2.2-1.8,4-2.2,5.7
			c-0.1,0.3-0.2,0.6-0.4,0.8c-2.3-1.6-5.1-2.5-8.3-2.5h-0.2c-0.5,0-1,0-1.5,0.1l-0.2,0l-3.7,0.6c-0.5-0.3-0.9-0.5-1.4-0.7
			c-1.9-0.9-3.7-1.6-5.5-1.9c2.2-2.3,3.5-5.5,3.5-9V477c1-1.7,3-4.4,6.4-8.8c0,0,0-0.1,0.1-0.1c2.1-2.8,4.3-5.5,6.6-8.2
			c4.4-5.2,6.3-7.4,6.3-11.9c0-3.4-1.3-6-3-8.1c1.9-1.9,3.4-3.4,4.4-4.6c1.8-2,4.6-5,4.6-9.7c0-5.5-3.2-10.3-8.5-12.6
			c-2.5-1.1-5.5-1.6-9.1-1.6c-8,0-14.8,3.6-19.8,10.5l-0.1,0.1c-0.2,0.2-0.4,0.5-0.5,0.8l0,0c-1.1-0.3-2.3-0.5-3.4-0.8
			c-5-1-10.5-1.5-16.3-1.5c-6.6,0-13.9,0.8-21.7,2.3c-7.9,1.6-16.1,4.3-24.3,8.1c-14.7,6.6-27.6,15.2-38.5,25.6
			c-10.4,9.9-19,21.1-25.7,33.1c0.4-1.5,0.5-3.1,0.2-4.8c-0.8-4.9-4.5-13.2-20.6-13.2h-1.3c-5,0-9.4,2.2-13.2,6.6
			c-3.1,0.7-6.2,2.5-9.8,5.8c-0.9-4-2.8-7.5-5.3-10.4c-5.1-5.7-12.8-8.5-22.9-8.5c-0.5,0-1,0-1.5,0c-0.3-0.5-0.7-1-1.1-1.5
			c-7.3-8.7-10.3-13.7-11.6-16.3c-0.9-1.8-2.2-3.4-3.9-4.6l-0.7-0.5c-1.9-1.3-4.2-2.1-6.6-2.1c-1,0-1.9,0.1-2.9,0.4
			c-2.2,0.6-4.2,1.6-8.8,4.7c-2.8,1.9-5.9,3.9-9.3,6.1c-0.1,0.1-0.2,0.1-0.3,0.2c-5.4,3.7-9,6.4-11.5,8.6c0.3-1.3,0.6-2.7,0.8-4.2
			l0.5-2.7c1.7-2.9,2.6-6.3,2.6-9.9c0-9.4-5.3-18.4-15.8-26.8C549.1,408.9,539.4,405,529.9,405L529.9,405z M736.6,493.8
			c9.4-13.2,21.4-24.3,35.6-33c0,0,0,0,0,0c14-8.7,27.9-13.1,41.3-13.1c2.1,0,4.1,0.2,6,0.5c-2.4,7.5-3.6,15.1-3.6,22.6
			c0,4.5,0.7,8.1,2.2,11.1c2.1,4.2,5.8,7.1,10.1,8c-0.6,0.6-1.2,1.2-1.8,1.9c-9.5,0.7-22,1-37.4,1l-14.8-1.5l-0.1,0
			c-0.3,0-0.6,0-0.9,0h-0.1c-7.1,0-12.6,5.6-12.6,12.6c0,6,1.8,11.4,5.3,15.5c5,6,10.7,7.3,14.6,7.3c4.2,0,10.5-0.7,19.8-2.1
			c2-0.3,4.1-0.6,6.3-1c-19.5,20.7-37.2,31.2-52.8,31.2c-9.7,0-17.3-2.6-22.5-7.7c-5.3-5.1-7.8-11.3-7.8-19.3c0-4.7,1-9.9,3-15.4
			C728.7,506.6,732,500.3,736.6,493.8L736.6,493.8z M914.5,462c0.3-1,0.6-2,0.8-3.1c0.7,0.8,1.4,1.4,2.2,2
			C916.5,461.2,915.5,461.6,914.5,462L914.5,462z M556.3,480.1c2.5-1.2,5.2-3,7.7-6c0.2,2.1,1,4.1,2.3,5.9c0.6,0.8,1.3,1.5,2,2.2
			c-3.8,3.4-7.7,7.7-11.5,12.7c0.2-0.3,0.3-0.5,0.5-0.8c1.6-2.6,2.1-5.6,1.5-8.5C558.3,483.5,557.5,481.7,556.3,480.1L556.3,480.1z
			 M699,494.7c0.2-0.2,0.3-0.3,0.5-0.5c-2.5,5.1-4.5,10.7-6.1,16.4c-1.9,7-2.9,14.3-2.9,21.5c0,5.8,0.8,11.2,2.3,16.3
			c-2.4-2.8-5.8-4.3-9.2-4.3c-0.5,0-0.9,0-1.4,0.1c0.1-1.7,0.9-7,5.2-20.4c0,0,0,0,0-0.1c1.8-5.9,3.8-11.5,5.8-16.5
			C695.1,502.6,697,498.4,699,494.7L699,494.7z M925.1,526.3c1.6,0,3.1-0.2,4.4-0.5c-1.2,3-2.6,6.1-4.4,9.3
			c-3.7,6.6-6.8,9.4-8.6,10.3c-0.1-0.5-0.1-1.2-0.1-2.1c0-5.1,2.2-10.9,6.5-17.2C923.7,526.3,924.4,526.3,925.1,526.3L925.1,526.3z
			 M574.5,536.8c3.2,0,6.3-0.4,9.5-1.1c-1.5,1.5-2.9,2.8-4.2,4c-3.9,3.3-7,5.1-9.2,5.9c0.3-2.1,1-5,2.6-8.9
			C573.6,536.8,574,536.8,574.5,536.8L574.5,536.8z M81.2,415.8c-6.7,0-11.2,4.9-12.6,6.6c-2.2,2.4-4.2,5.2-6,8.3
			c-1.8,3.1-3.4,5.8-4.6,8.2c-1.1,2.1-2,3.8-2.7,5.2C41,469,30,491.2,22.7,509.9c-7.6,19.6-11.5,36.4-11.5,49.8
			c0,7.8,1.5,14.9,4.5,21.2c3,6.3,8.5,13.8,17.8,13.8c5.7,0,10.2-2.9,12.2-7.7c1.1-2.7,2.2-7.9-2.5-13.5c-0.1-0.2-0.2-0.5-0.3-0.8
			c-0.1-0.3-0.5-1.7-0.5-5.7c0-7,1.5-14.6,4.4-22.8c3-8.5,7.9-17.8,14.5-27.5c5.3-7.8,10.8-15.3,16.4-22.1
			c5.4-6.7,10.9-12.7,16.3-17.8c7.5-6.9,13.3-10.6,17.8-12.3c-1.7,6.5-6.3,19-17.8,42.1c-6.6,13.2-11.5,23.2-14.8,29.9
			c-1.6,3.3-2.9,5.9-3.7,7.6c-0.4,0.9-0.8,1.6-1,2.1c-0.5,1-1.5,3.3-1.3,6.4c0.4,6.7,5.3,14.3,18.1,14.3c8.3,0,14.3-2.5,17.8-7.6
			l0.1-0.2c0.3-0.4,0.5-0.8,0.8-1.3l0.1-0.2l3.9-8.3c8.4-7.6,20.8-19.9,36.9-36.9c-0.6,2.6-1.2,5.1-1.7,7.6c0,0.1,0,0.1,0,0.2
			c-0.9,4.8-1.6,9.4-2.2,13.5c-0.6,4.4-0.9,8.5-0.9,12.3c0,9.1,1.9,17.1,5.7,23.7c4.8,8.5,12.6,13.1,21.8,13.1
			c5.4,0,12.8-1.6,19.7-8.5c-0.3,1.1-0.5,2.3-0.5,3.5c0,3.8,1.3,7.5,3.9,10.7c3.1,3.9,7.4,6,12,6c5.1,0,10.1-2.5,14.7-7.5
			c4.1-4.4,6.3-7.6,7.4-10.5c0.8-2.2,1.2-4.4,1-6.5c7.6-2.3,14.4-7,20.3-13.7c0,0,0,0,0,0v0.2c0,0.5,0,1,0.1,1.5l0,0.2
			c0.5,3.1,2.3,7.6,8,11c3.4,2.1,7.1,3.1,11,3.1c7.1,0,13-4,15.3-10.5c0,0,0-0.1,0.1-0.2l2.2-6.3c2.3-5,5.1-10.4,8.6-16.1
			c0.3,9.9,2.2,17.7,6,23.5c0.1,0.2,0.2,0.3,0.3,0.5c-2.9,0.9-5.9,1.9-8.8,2.9c-21.2,7.6-39.2,17.8-53.5,30.3c0,0,0,0-0.1,0
			c-15.9,14.2-23.9,29.2-23.9,44.3c0,15.3,5.6,28.1,16.3,37c10.2,8.5,22.9,12.9,37.8,12.9c20,0,39.5-5.3,58-15.8
			c18.3-10.2,33.7-24.1,46-41.5c8.9-12.8,15.3-26.1,19-39.9c0.7,0.6,1.3,1.1,1.7,1.5c-1.6,2.3-2.1,5.3-1.2,8l0.4,1.3
			c2.3,7,7.9,9.5,12.3,9.5c5.6,0,10.3-3.1,12.8-8.2c1.3-2.7,1.9-5.9,1.9-9.9c0-7.4-3.6-14.6-10.7-21.5c-4-4.1-8.7-7.7-14.1-10.6
			c-0.2-5.8-0.9-11-2.3-15.5c5.4-8.1,9.3-17,11.4-26.4c0.3,0,0.6,0,1,0c3.1,0,6.1-1.1,9.1-3.3c5-3.7,7.7-9.2,7.7-15.7
			c0-6.9-3.1-18.9-23.2-24.1c-8.5-12.4-17.3-18.5-27-18.5c-12.1,0-18.5,5.5-21.8,10.2l0,0.1c-0.1,0.1-0.2,0.2-0.2,0.4l0,0.1
			c-1.4,2.2-2.5,4.9-3.3,8.2c-2.3-4.2-7.5-8.4-19-8.4h-1.3c-5,0-9.4,2.2-13.2,6.6c-3.1,0.7-6.2,2.5-9.8,5.8c-0.9-4-2.8-7.5-5.3-10.4
			c-5.1-5.7-12.8-8.5-22.9-8.5c-2.4,0-4.5,0.4-6.3,1.1c0.5-1.5,0.6-3.1,0.2-4.7l-0.3-1.4l-0.4-1.9l-0.1-0.6c-0.3-1.4-1-2.7-1.9-3.8
			l-0.4-0.5C261,444,258,439,256.7,436.3l-0.3-0.6c-0.7-1.4-1.7-2.7-3-3.6l-0.6-0.4l-0.7-0.5l-1-0.7c-1.5-1-3.3-1.6-5.1-1.6
			c-0.7,0-1.5,0.1-2.2,0.3l-1.1,0.3c-2.2,0.6-4.2,1.6-8.8,4.7c-2.8,1.9-5.9,3.9-9.3,6.1c-0.1,0.1-0.2,0.1-0.3,0.2
			c-4.8,3.4-8.3,5.9-10.8,7.9c-1.9-4.6-6.6-8.2-14.5-8.2c-6.1,0-11.9,2.3-17.4,6.9c-5.6,0.8-11.3,4.9-20.2,14.1l0,0
			c-0.1,0.1-0.2,0.2-0.3,0.3l0,0c-2.4,2.8-4.8,5.5-7.2,8.1c-2.4,2.6-4,4.6-5.2,6.1c-1.6,1.7-3.2,3.3-4.8,5
			c2.3-8.2,3.4-15.1,3.4-20.9c0-8.1-2.1-14.7-6.3-19.5c-3.2-3.6-9-8-19.1-8c-5.9,0-11.9,1.2-18,3.7c0.3-0.9,0.5-1.9,0.5-2.8v-0.7
			c0-3-1.1-10.5-11.5-14.5C88.8,416.6,84.9,415.8,81.2,415.8L81.2,415.8z M208.1,468.9C208.1,468.9,208.1,468.9,208.1,468.9
			C208.2,468.9,208.2,468.9,208.1,468.9C208.1,468.9,208.1,468.9,208.1,468.9L208.1,468.9z M260.5,474.9c0.8-0.1,1.5-0.3,2.2-0.5
			c-0.3,1.1-0.5,2.1-0.6,3.2C261.6,476.7,261.1,475.8,260.5,474.9L260.5,474.9z M180.4,541.1c1.4-15.2,7.5-33.5,18.2-54.6
			c-0.2,1.5-0.3,3-0.3,4.5c0,3.6,0.4,7,1.2,10.1c-2.9,4.1-5.4,8.8-7.5,14.1c-1.8,4.6-3.2,9.1-4,13.6c-2.7,2.2-4.3,5.2-5,6.5
			l-0.1,0.1c-0.1,0.2-0.2,0.5-0.3,0.7l0,0.1C181.8,537.9,181.1,539.6,180.4,541.1L180.4,541.1z M229.4,526.3c1.6,0,3.1-0.2,4.4-0.5
			c-1.2,3-2.6,6.1-4.4,9.3c-3.7,6.6-6.8,9.4-8.6,10.4c-0.1-0.5-0.1-1.2-0.1-2.1c0-5.1,2.2-10.9,6.5-17.2
			C228,526.3,228.7,526.3,229.4,526.3L229.4,526.3z M360.9,545.4c0-0.4-0.1-0.9-0.1-1.5c0-1.2,0.2-3,0.8-5.4l1.9,4.6
			C362.5,544.2,361.6,545,360.9,545.4L360.9,545.4z M315.5,591.3c14.9-3.9,30.3-5.9,45.7-5.9c0.6,0,1.2,0,1.7,0
			c-6.6,16.6-17.8,32-33.4,45.9c-10.1,8.8-20.4,15.4-30.9,19.5c-10.3,4.1-21,6.2-31.8,6.2c-7.4,0-13-1.6-16.6-4.9
			c-3.4-3-4.9-6.2-4.9-10.4c0-2.3,0.6-4.8,1.7-7.5c1.2-2.9,3.1-5.8,5.7-8.6c0,0,0.1-0.1,0.1-0.1c5.9-6.7,14.1-13.1,24.4-19
			C287.8,600.5,300.6,595.3,315.5,591.3L315.5,591.3z"/>
	</g>
	<g class="st1">
		<path class="st3" d="M848.9,506.3c-12.4,31.1-26.4,57.7-41.7,79.2c-16,22.8-29.1,33.9-40.2,33.9c-6.6,0-7.3-3.5-7.3-4.9
			c0-2.9,3.6-4.1,5.2-4.6c3.9-1.4,6.9-2.5,8.9-3.5c1.8-0.8,3.1-1.5,4-1.9c6.6-5.9,13.5-14.7,20.3-26.4c5.4-9.1,10.9-20.1,16.3-32.7
			c-9.2,8.4-18.6,15.1-28,20c-12.7,6.5-25.8,9.8-38.9,9.8c-14.5,0-26.2-4-34.9-11.9c-8.7-8.1-13.1-18.6-13.1-31.1
			c0-6.5,0.9-12.9,2.6-19.2c1.7-6.2,4-12.1,6.9-17.5c6.4-11.8,14.7-22.7,24.9-32.4c10.1-9.7,22.3-17.8,36-23.9
			c7.6-3.5,15.1-6.1,22.3-7.5c7.2-1.4,13.9-2.1,19.9-2.1c5.2,0,10,0.5,14.5,1.4c3.5,0.7,6.6,1.6,9.4,2.7l3.5-6.1l0.1-0.1l0.1-0.1
			c3.3-4.5,7.5-6.8,12.5-6.8c2.4,0,4.2,0.3,5.5,0.9c1.9,0.8,3.1,2.4,3.1,4.3c0,1.2-0.6,2-2.2,3.7c-1,1.1-2.5,2.7-4.6,4.7l-4.8,4.8
			l-1.1,1.1l-0.1,0.1c1.3,1,2.5,2,3.6,3.1c2.6,2.6,3.2,3.6,3.2,4.8c0,1.1-0.1,1.4-4.1,6.1c-2.3,2.8-4.6,5.6-6.8,8.5
			c-6.2,7.9-8.1,11.4-8.8,13l0.5,0.5v1.1c0,2.3-1.6,3.9-3.9,3.9c-2.3,0-4.2-1.2-5.3-3.4c-0.8-1.7-1.3-4-1.3-7c0-9.5,2.2-19,6.4-28.5
			c-5.4-2.4-11.5-3.6-17.9-3.6c-15.1,0-30.6,4.9-46.1,14.5c-15.3,9.3-28.1,21.3-38.3,35.5c-5.1,7.2-8.8,14.2-11.1,20.8
			c-2.3,6.5-3.5,12.6-3.5,18.4c0,10.5,3.4,18.9,10.5,25.7c7,6.8,16.7,10.2,28.8,10.2c19.6,0,41.4-13.5,64.7-40l0,0l0,0
			c2.2-2.4,4.1-4.5,5.5-6.2c1.3-1.6,2.3-3,2.9-4l1-3c-11.7,2.3-21.5,4.1-29.1,5.2c-8.8,1.3-14.9,2-18.5,2c-2.9,0-5.5-1.4-7.7-4.1
			c-2.1-2.6-3.2-5.8-3.2-9.7c0-2.1,1.5-3.6,3.6-3.6h0.1l0.1,0l15.2,1.5c18.5,0,33.1-0.5,43.3-1.4c1.4-3.6,3.5-5.4,6.1-5.4
			c1.3,0,2.7,0.4,4.3,1.2c1.1,0.5,2.4,1.2,3.8,2.1l6.9-1.1l0.2,0h0.2c3.5,0,4.7,2.2,4.7,4.2C858.2,503.9,855.3,505.1,848.9,506.3z
			 M884.7,549.1h-0.9l-0.7,0.5c-0.7,0.5-1.5,1.2-2.4,2c-0.7,0.6-2,1.7-3.9,3.3c-2.6,2.1-3.9,2.3-4.4,2.3c0,0-0.1,0-0.1,0
			c-0.1-0.1-0.7-0.9-0.7-3.9c0-2.8,0.5-6.5,1.6-11.3c1.1-4.8,3-11.1,5.5-18.6c2.4-7,4.9-13.5,7.4-19.4c2.5-5.8,5.1-10.9,7.8-15.3
			l0.5-0.9l-0.2-1c-1.2-5.7-9.7-5.7-12.4-5.7c-2.8,0-5.1,0.9-6.8,2.6c-0.5,0.5-1.3,1.5-2.7,4.3c-1,2-1.5,3.3-1.7,4.4
			c-10.4,23.7-15.7,43.1-15.7,57.7c0,5.4,1,9.4,2.9,12.2c2.1,3.1,5.4,4.7,9.6,4.7c2.6,0,6.4-1.5,12-4.8c6.1-3.6,8.8-6.5,8.8-9.5
			C888.4,550.6,886.9,549.1,884.7,549.1z M924.8,454.3c0.7,0,1.2,0,6.6-2.9c3.2-1.7,6.8-3.8,10.6-6c5.7-3.5,9.8-6.1,12.1-7.7
			c2.3-1.6,3.6-2.5,4.1-2.8l0.2-0.1l0.2-0.2c1.5-1.5,2.3-3.7,2.3-6.3c0-3.3-2-5.5-5.2-5.5c-1.2,0-2.2,0-18.3,12.3
			c-5.1,3.9-9.1,7-11.7,9.3c-4.1,3.5-4.7,4.7-4.7,6.1C921.2,453,923.1,454.3,924.8,454.3z M982.7,481.1c-2.8,0-5.1,0.9-6.8,2.6
			c-0.5,0.5-1.3,1.5-2.7,4.3c-1,2-1.5,3.3-1.7,4.4c-10.4,23.7-15.7,43.1-15.7,57.7c0,5.4,1,9.4,2.9,12.2c2.1,3.1,5.4,4.7,9.6,4.7
			c2.6,0,6.4-1.5,12-4.8c6.1-3.6,8.8-6.5,8.8-9.5c0-2.1-1.5-3.6-3.6-3.6h-0.9l-0.7,0.5c-0.7,0.5-1.5,1.2-2.4,2
			c-0.7,0.7-2,1.7-3.9,3.3c-2.6,2.1-3.9,2.3-4.4,2.3c0,0-0.1,0-0.1,0c-0.1-0.1-0.7-0.9-0.7-3.9c0-2.8,0.5-6.5,1.6-11.3
			c1.1-4.8,3-11.1,5.5-18.6c2.4-7,4.9-13.5,7.4-19.4c2.5-5.8,5.1-10.9,7.8-15.3l0.5-0.9l-0.2-1C993.9,481.1,985.5,481.1,982.7,481.1
			z M892.5,472.2c3.4,0,6.5-1.7,9.3-5c2.6-3.1,4.3-7.5,5.3-13.4l1.3-7.5l0-0.2v-0.2c0-3.8-2.8-3.9-3.1-3.9h-1.3l-0.8,1
			c-3.9,4.9-7.7,9.2-11.4,12.8c-3.6,3.5-7.1,6.4-10.2,8.6l-2.8,1.9l2.6,2.2C884.4,471,888.1,472.2,892.5,472.2z M1009.3,445.9v0.2
			l0,0.2l-1.3,7.5c-1,5.9-2.7,10.3-5.3,13.4c-2.8,3.3-5.9,5-9.3,5c-4.1,0-7.6-1.1-10.4-3.2c-0.2,0.4-0.4,0.8-0.6,1.2
			c-3.6,7.8-8,13.8-13.1,17.7c-1.8,1.4-3.7,2.7-5.5,3.7c0.7,0.8,1.1,1.8,1.1,3c0,6-4,6.5-5.2,6.5h-0.2l-0.2,0l-3.2-0.5
			c0,0.5,0.1,1,0.1,1.4c0.1,1.5,0.1,2.7,0.1,3.8c0,14.7-3.8,28-11.4,39.7l0,0l0,0c-7.8,11.7-17.7,17.6-29.5,17.6
			c-15.5,0-23.7-8.6-23.7-24.7c0-6.2,1.4-12.9,4.2-19.9c2.5-6.3,5.6-11.5,9.3-15.7c-1.5-3.3-2.3-7.3-2.3-11.8c0-5.7,2.4-11,7-15.5
			c4.7-4.6,10.4-6.9,17.2-6.9c11.6,0,19.8,5.7,24.4,16.9c0.1,0,0.2,0,0.3,0c3.1,0,6.7-2.4,10.5-7.2c4.2-5.3,8.2-12.6,11.9-21.9
			l0-0.1l0-0.1c1.6-3.5,3.4-6.7,6.3-6.7c1.8,0,3.4,1.1,4.2,2.9c0.5,1.3,0.8,2.9,0.8,5.1c0,1.5-0.2,3.1-0.5,4.9
			c2.4-1.9,5-4.1,7.7-6.7c3.6-3.6,7.5-7.9,11.4-12.8l0.8-1h1.3C1006.4,442,1009.3,442.1,1009.3,445.9z M919.3,516.1
			c-7.9,9.7-11.9,18.9-11.9,27.3c0,10.2,4.2,11.5,7.8,11.5c6.1,0,12.1-5.2,17.8-15.3c6-10.8,9.1-21.3,9.1-31c0-3.1-0.4-5.8-1.2-8
			c-4.5,1.2-9.3,3.9-14.6,8.3c0.6,0,0.8-0.1,0.9-0.1c2.3,0,3.9,1.6,3.9,3.9c0,1.1-0.4,4.7-6,4.7
			C923.3,517.3,921.4,516.9,919.3,516.1z M913.6,496.2c0,0.1,0,0.2,0,0.3c8.6-6.2,15-9.8,19.6-11c-2.1-3-5.2-4.4-9.5-4.4
			c-2.2,0-4,0.7-5.4,2.2c-1.6,1.7-2.8,3.8-3.6,6.1C914,491.9,913.6,494.2,913.6,496.2z M573.6,474.7c-0.7-1-0.8-2.3-0.3-3.9
			c0.4-1.1,0.8-2.5,14.2-11.8c0,0,0,0,0.1,0c3.5-2.3,6.5-4.3,9.4-6.2c4.4-2.9,5.4-3.3,6.1-3.5c0.2-0.1,0.4-0.1,0.6-0.1
			c0.5,0,1,0.2,1.5,0.5l0.7,0.5c0.4,0.3,0.7,0.6,0.9,1c2.2,4.6,6.5,10.7,12.8,18.3c0.3,0.3,0.5,0.7,0.6,1.1l0.4,1.9
			c0.2,0.9-0.1,1.8-0.7,2.4l-1.2,1.2c-0.5,0.5-1.1,0.7-1.8,0.7c-0.1,0-0.3,0-0.4,0c-1.3-0.2-2.9-1-5.1-2.4c-1.9-1.2-3.9-2.7-5.8-4.3
			c0,0-0.1-0.1-0.1-0.1c-2.2-2.1-3.9-3.9-5.3-5.5c-0.6-0.7-1.2-1.4-1.7-2c-19.6,13.6-20.6,13.6-21.8,13.6
			C574.8,476.2,573.9,475.3,573.6,474.7z M510.8,453.8c2.2,0.3,4.4,0.6,6.6,0.9c7.4,1,15.8,1.5,24.7,1.5h1c1.7,0,3.2-0.1,4.7-0.2
			c-0.1,0.1-0.3,0.3-0.4,0.4c-3.6,3.5-7.1,6.4-10.2,8.6c-0.7,0.5-1.1,1.2-1.1,2s0.3,1.6,0.9,2.1c2.9,2.5,6.6,3.8,11.1,3.8
			c3.4,0,6.5-1.7,9.3-5c2.6-3.1,4.3-7.5,5.3-13.4l0.8-4.6c1.4-1.8,2.1-4,2.1-6.5c0-6.5-4.2-13.2-12.4-19.8
			c-8.1-6.4-15.9-9.7-23.2-9.7c-5.2,0-6,2.4-6,3.9c0,1.1,0.7,2,1.7,2.4l14.1,5.5c0,0,0,0,0,0c4.4,1.6,7.9,3.3,10.2,5
			c2.7,2,2.7,3.7,2.7,4.3c0,6.2-11.2,7.6-20.6,7.6c-13,0-30.1-2-51-5.8c-20.9-3.9-46-9.5-74.6-16.7c-1.2-0.4-2.7-0.6-4.5-0.7
			c-1.7-0.1-3-0.1-4.1-0.1c-5.7,0-10.2,1.5-13.2,4.5c-3,3-4.5,7.4-4.5,13.2c0,8.4,6.5,16.5,19.2,24.1c12.2,7.2,24,10.8,35.2,10.8
			c7.3,0,8.9-2.8,8.9-5.2c0-1.7-1.2-3.6-4.4-3.6c0,0-0.1,0-0.1,0l-4.9,0.3c-0.3,0-0.6,0-0.9,0c-2.5,0-5.7-0.5-9.4-1.6
			c-4.3-1.2-10.1-3.8-17.2-7.7c-10.7-5.9-16.1-11.6-16.1-17c0-1.9,2.5-2.9,7.6-2.9c3.4,0,6.9,0.1,10.4,0.4c3.4,0.3,7.1,0.7,10.8,1.4
			c0,0,0,0,0.1,0c4.3,0.7,7.8,1.3,10.4,1.9c2.7,0.6,6.3,1.3,10.9,2.2l55.1,11.1c-6.4,2.9-13.5,9.7-21.5,20.5
			c-5.1,7-9.9,14.5-14.4,22.3c-4.5,7.8-8.5,16-12,24.4c-7.1,17-10.6,28.7-10.6,35.9c0,18.5,9.5,22.4,17.5,22.4
			c2.7,0,6.5-1.1,12.2-3.6c4.7-1.8,10-4.3,10-8.7c0-1.5-1.1-3.1-3.6-3.1c-0.4,0-0.9,0.1-1.3,0.3l-6.5,3.6c-3.9,2.2-7.7,3.3-11.2,3.3
			c-3.6,0-4.9-1.3-4.9-4.7c0-24.9,14.7-53.9,43.8-86.3l16.4-16.4c0.2-0.2,0.4-0.5,0.6-0.8c1.4-3.5,1.5-3.8,1.5-4.4
			C511.2,455.4,511.1,454.6,510.8,453.8z M693.2,486.3c-0.9-5.6-9-5.6-11.7-5.6h-1.3c-3.1,0-5.9,2.1-8.6,6.6
			c-0.4-0.2-0.8-0.3-1.3-0.3c-2.5,0-6.3,1.7-16.3,14c-3.5,4.3-7.1,9.2-10.9,14.3c-0.3,0.4-0.6,0.8-0.8,1.2
			c5.9-18.5,6.7-23.4,6.7-25.3c0-7.7-3.5-16.9-20.1-16.9c-6,0-6.5,3.8-6.5,4.9c0,1.9,1.3,3.8,4.1,3.8c0.2,0,0.3,0,0.5,0
			c0.1,0,0.3,0,0.4,0c0.6,0,1.3,0.1,2,0.3c0.1,0.2,0.3,0.8,0.3,2.2c0,8.7-2.9,22.1-8.5,39.9c-7.8,24.4-8.7,30-8.7,32
			c0,0.1,0,0.3,0,0.4c0.3,1.8,1.6,3.4,3.8,4.8c2,1.2,4.1,1.8,6.3,1.8c3.4,0,5.8-1.6,6.9-4.6c0,0,0,0,0,0l2.3-6.7
			c6.5-14.5,17.7-31.7,33.5-51.3c-0.2,0.6-0.4,1.3-0.6,1.9c-4.6,14.2-6.9,25.8-6.9,34.4c0,9.3,1.5,16.1,4.6,20.9
			c3.4,5.5,8.2,8.2,14.2,8.2c6.6,0,10.4-3.4,10.4-9.4c0-4.4-2.6-4.7-3.4-4.7c-1,0-1.9,0.6-2.4,1.5c-0.3,0.2-0.8,0.7-2,1.6
			c-2.2,1.7-2.9,1.8-3,1.8c-0.2,0-1,0-1.8-2.3c-0.8-2.4-1.3-6.1-1.3-11c0-2.7,1-9,5.6-23.7c1.9-6.2,3.9-12,6.1-17.3
			c2.1-5.3,4.4-10.1,6.8-14.3c0.1-0.1,0.1-0.2,0.2-0.4c0-0.1,0-0.1,0.1-0.2C692.8,488.5,693.4,487.4,693.2,486.3z M540.3,549.7
			c-0.6,0-1.1,0.2-1.6,0.5c-0.7,0.5-1.5,1.2-2.4,2c-0.7,0.7-2,1.7-3.9,3.3c-2.6,2.1-3.9,2.3-4.4,2.3c0,0-0.1,0-0.1,0
			c-0.1-0.1-0.7-0.9-0.7-3.9c0-2.8,0.5-6.5,1.6-11.3c1.1-4.8,3-11.1,5.5-18.6c2.4-7,4.9-13.5,7.4-19.4c2.5-5.8,5.1-10.9,7.8-15.3
			c0.4-0.6,0.5-1.3,0.3-1.9c-1.2-5.7-9.7-5.7-12.4-5.7c-2.8,0-5.1,0.9-6.8,2.6c-0.5,0.5-1.3,1.5-2.7,4.3c-1,2-1.5,3.3-1.7,4.4
			c-10.4,23.7-15.7,43.1-15.7,57.7c0,5.4,1,9.4,2.9,12.2c2.1,3.1,5.4,4.7,9.6,4.7c2.6,0,6.4-1.5,12-4.8c6.1-3.6,8.8-6.5,8.8-9.5
			C544,551.2,542.5,549.7,540.3,549.7z M617.8,525.7c-18.9,27.6-34.5,41-47.5,41c-16.2,0-24.7-8-24.7-23.2c0-11.1,5.4-24.6,16.1-40
			c0,0,0,0,0,0c11.4-16,22.1-23.8,32.9-23.8c4.8,0,9.1,1.6,12.7,4.6c3.8,3.2,5.8,7.2,5.8,11.8c0,7.2-4.4,14.5-13.2,21.6
			c-8.4,6.8-17,10.2-25.3,10.2c-4.6,0-4.9-2.8-4.9-3.6c0-0.1,0-0.1,0-0.2c-5.4,9.4-8.1,17.4-8.1,23.6c0,7.8,3.7,7.8,5.5,7.8
			c5.6,0,11.9-3,18.8-9c2.3-2.2,4.9-4.7,7.7-7.6c2.9-3,6-6.2,9.1-9.5c10.4-11.2,10.7-11.2,12.1-11.2c2.9,0,4.2,1.9,4.2,3.8
			c0,1.2-0.3,2.3-0.8,3.4C617.9,525.5,617.8,525.6,617.8,525.7z M580.3,508.7c-3.2,3.9-6.1,7.9-8.7,12c0.2-0.1,0.4-0.2,0.6-0.3
			c18.9-5.9,28.1-15.2,28.1-28.3c0-0.2,0-0.3,0-0.4c-1,0.3-3.3,1.4-8.3,5.3C587.8,500.4,583.9,504.3,580.3,508.7z M215.5,463.7
			c-0.7-1-0.8-2.3-0.3-3.9c0.4-1.1,0.8-2.5,14.2-11.8l0,0l0,0c3.5-2.3,6.5-4.3,9.4-6.2c4.4-2.9,5.4-3.3,6.1-3.5l1.1-0.3l1,0.7
			l0.7,0.5l0.6,0.4l0.3,0.6c2.2,4.6,6.5,10.7,12.8,18.3l0.4,0.5l0.1,0.6l0.4,1.9l0.3,1.4l-1.1,1l-1.2,1.2l-0.9,0.9l-1.3-0.2
			c-1.3-0.2-2.9-1-5.1-2.4c-1.9-1.2-3.9-2.7-5.8-4.3l-0.1-0.1l-0.1-0.1c-2.2-2.1-3.9-3.9-5.3-5.5c-0.6-0.7-1.2-1.4-1.7-2
			c-19.6,13.6-20.6,13.6-21.8,13.6C216.8,465.1,215.9,464.2,215.5,463.7z M197.4,548.4c-2.2,7.3-5,13-8.1,17.1
			c-4.3,5.6-9.6,8.5-15.6,8.5c-6,0-10.7-2.9-14-8.6c-3-5.2-4.5-11.7-4.5-19.3c0-3.4,0.3-7.2,0.8-11.2c0.5-4,1.2-8.4,2.1-13l0,0l0,0
			c1.1-5.1,2.3-10.3,3.7-15.5c1.4-5.2,3-10.6,4.7-16c1.5-4.6,3.1-9,5-13c-30.7,33.3-52.4,55.7-64.7,66.5l-4.7,9.9L102,554l-0.1,0.2
			c-1.8,2.5-5.2,3.7-10.5,3.7c-7.6,0-9-3.6-9.1-6c-0.1-0.8,0.2-1.5,0.5-2c0.2-0.5,0.5-1.1,0.9-2c0.8-1.7,2-4.2,3.7-7.5
			c3.2-6.6,8.2-16.6,14.7-29.8c13.1-26.3,19.8-43.7,19.8-52c0-4.7-1.9-4.7-3.1-4.7c-8.8,0-19.2,5.5-30.8,16.2
			c-5.8,5.5-11.6,11.8-17.2,18.8c-5.7,7.1-11.3,14.7-16.8,22.7c-7,10.4-12.2,20.3-15.5,29.5c-3.3,9.1-4.9,17.8-4.9,25.8
			c0,3.7,0.3,6.6,0.9,8.5c0.6,1.9,0.9,2.6,1.1,2.9c1,1,2.9,3,1.9,5.3c-0.4,1-1.4,2.1-3.9,2.1c-3.7,0-6.9-2.8-9.6-8.7
			c-2.4-5.1-3.6-11-3.6-17.4c0-12.3,3.7-28,10.9-46.6c7.1-18.4,18-40.2,32.2-64.8c0.7-1.4,1.6-3.1,2.7-5.3c1.1-2.2,2.6-4.8,4.4-7.8
			c1.5-2.6,3.1-4.9,4.9-6.8c2.2-2.5,4.1-3.6,6-3.6c2.6,0,5.4,0.6,8.4,1.7c3.8,1.5,5.7,3.5,5.7,6.1v0.7l-0.4,0.6
			c-8.9,14.7-16.4,27.2-22.4,37.5c5.9-6.5,11.5-11.9,17-16.2c11.5-9.1,22.4-13.8,32.4-13.8c5.4,0,9.5,1.6,12.3,4.9
			c2.7,3.1,4.1,7.7,4.1,13.6c0,12.1-6,31-18.4,57.7c2.5-2.4,5.2-5,8.1-7.9c7.6-7.6,16.9-17,27.6-28c1-1.3,2.6-3.3,5-5.9
			c2.4-2.6,4.8-5.4,7.3-8.2l0,0l0,0c9.6-10.1,13.3-11.5,15.7-11.5c0.5,0,0.9,0.1,1.4,0.3c4.6-4.7,9.3-7,14-7c5.7,0,6.5,2.6,6.5,4.2
			c0,1,0,1.7-9.7,19.2c-16.4,29.7-24.7,54.9-24.7,75.1c0,13.1,2.2,17.7,4.2,17.7c0.1,0,1.8-0.1,5.4-5.7c2.9-4.4,6.3-11.2,10.1-20.1
			l0-0.1l0.1-0.1c1.3-2.5,2.9-4.8,5.2-4.8c0,0,0.1,0,0.2,0c0.4-5.2,1.8-10.6,4.1-16.2c2.5-6.3,5.6-11.5,9.3-15.7
			c-1.5-3.3-2.3-7.3-2.3-11.8c0-5.7,2.4-11,7-15.5c4.7-4.6,10.4-6.9,17.2-6.9c12,0,20.4,6.1,24.9,18.1c6.6,1.4,12.9,3.5,12.9,8
			c0,6-4,6.5-5.2,6.5h-0.2l-0.2,0l-3.2-0.5c0,0.5,0.1,1,0.1,1.4c0.1,1.5,0.1,2.7,0.1,3.8c0,14.7-3.8,28-11.4,39.7l0,0l0,0
			c-7.8,11.7-17.7,17.6-29.5,17.6C207.9,563.1,200.3,558.1,197.4,548.4z M223.7,516.1c-7.9,9.7-11.9,18.9-11.9,27.3
			c0,10.2,4.2,11.5,7.8,11.5c6.1,0,12.1-5.2,17.8-15.3c6-10.8,9.1-21.3,9.1-31c0-3.1-0.4-5.8-1.2-8c-4.5,1.2-9.3,3.9-14.6,8.3
			c0.6,0,0.8-0.1,0.9-0.1c2.3,0,3.9,1.6,3.9,3.9c0,1.1-0.4,4.7-6,4.7C227.7,517.3,225.7,516.9,223.7,516.1z M218,496.2
			c0,0.1,0,0.2,0,0.3c8.6-6.2,15-9.8,19.6-11c-2.1-3-5.2-4.4-9.5-4.4c-2.2,0-4,0.7-5.4,2.2c-1.6,1.7-2.8,3.8-3.6,6.1
			C218.4,491.9,218,494.2,218,496.2z M220.7,567.6l-0.6-0.3l-0.7,0c-2.5,0.2-4.2,0.4-5.3,0.6c-1.2,0.3-2.8,1.1-5,2.4
			c-5.1,3.1-7.2,5.3-7.2,7.8c0,1.8,0.6,3.5,1.9,5.1c1.8,2.2,3.7,2.6,5,2.6c2.6,0,5.2-1.5,8.1-4.6c4.2-4.5,5.2-6.5,5.6-7.6
			C223.7,570.4,222.3,568.4,220.7,567.6z M261.2,556.6v0.2l0,0.2c0.3,1.8,1.6,3.4,3.8,4.8c2,1.2,4.1,1.8,6.3,1.8
			c3.4,0,5.8-1.6,6.9-4.6l0,0l0,0l2.3-6.7c6.5-14.5,17.7-31.7,33.5-51.3c-0.2,0.6-0.4,1.2-0.6,1.9c-4.6,14.3-6.9,25.8-6.9,34.4
			c0,9.3,1.5,16.1,4.6,20.9c3.4,5.5,8.2,8.2,14.2,8.2c6.6,0,10.4-3.4,10.4-9.4c0-4.4-2.6-4.7-3.4-4.7h-6.2l2.6,2.6
			c-0.2,0.2-0.4,0.3-0.7,0.6c-2.2,1.7-2.9,1.8-3,1.8c-0.7,0-1.3-0.8-1.8-2.3c-0.8-2.4-1.3-6.1-1.3-11c0-2.7,1-9,5.6-23.7
			c1.9-6.2,3.9-12,6.1-17.3c1.9-4.8,4-9.2,6.1-13.1l3.5,3.4l-1.2-7.8c-0.9-5.6-9-5.6-11.7-5.6h-1.3c-3.1,0-5.8,2.1-8.6,6.5l-0.2-0.2
			H319c-2.5,0-6.3,1.7-16.3,14c-3.5,4.3-7.1,9.2-10.9,14.3c-0.3,0.4-0.6,0.8-0.8,1.2c5.9-18.5,6.7-23.4,6.7-25.3
			c0-7.7-3.5-16.9-20.1-16.9c-6,0-6.5,3.8-6.5,4.9c0,1.9,1.3,3.8,4.1,3.8c0.2,0,0.3,0,0.5,0c0.1,0,0.3,0,0.4,0c0,0,0,0,0,0
			c0.6,0,1.3,0.1,2,0.3c0.1,0.2,0.3,0.8,0.3,2.2c0,8.7-2.9,22.1-8.5,39.9C262.1,549,261.2,554.6,261.2,556.6z M413.6,596.2
			c0,2.6-0.3,4.6-1,6c-1,2-2.6,3.1-4.7,3.1c-1,0-2.8-0.4-3.8-3.3l-0.4-1.3l0.8-1.1c1.1-1.5,1.6-2.8,1.6-3.9c0-2.8-2-5.8-6-8.9
			c-3.6-2.8-7.5-5-11.6-6.6c-2.5,16.8-9.3,33.1-20.1,48.5c-11.5,16.2-26,29.3-43,38.8c-17.2,9.7-35.2,14.7-53.6,14.7
			c-12.7,0-23.5-3.6-32-10.8c-8.7-7.3-13-17.4-13-30.1c0-12.5,7-25.2,20.9-37.6c13.4-11.8,30.4-21.4,50.6-28.6
			c19.5-7,39.2-10.6,58.7-10.6c7.9,0,14.9,0.6,20.8,1.9c0.2-0.9,0.3-1.8,0.3-2.6c0-3.6-0.3-6.2-0.7-8c-6.1,5-12,7.5-17.3,7.5
			c-6.4,0-12-3.1-16.6-9.1l0,0l0,0c-4.5-6-6.8-12.3-6.8-18.8c0-12.6,6.7-25.7,20.1-38.9c0.1-10.1,1.2-16.7,3.5-20.4l0-0.1l0-0.1
			c2.9-4.2,7.8-6.3,14.4-6.3c7.1,0,14.1,5.7,21.4,17.5c13.1,2.6,19.7,8,19.7,16.2c0,3.6-1.4,6.5-4.1,8.5c-1.5,1.1-2.6,1.6-3.8,1.6
			c-1.6,0-3.4-1.2-3.4-3.8v-1.4l1.1-0.8c1.5-1,1.5-1.8,1.5-2c0-1.3,0-4.4-7-5.1v2.7c0,16.6-4.9,31.5-14.7,44.3
			c2.3,5,3.5,11.5,3.5,19.2v2.5c0,0.3,0,0.5,0,0.8c6.6,2.8,12.2,6.6,16.7,11.3C410.9,586.3,413.6,591.4,413.6,596.2z M362.5,517.2
			c-2.4,3-4.6,6.7-6.6,11.1c-2.7,5.9-4.1,11.1-4.1,15.6c0,9.7,4.2,10.9,7.8,10.9c4.8,0,9.6-3.5,14.3-10.4L362.5,517.2z M385,501.2
			c-2.6,1.1-6,2.7-10,4.9c-4.3,2.2-5.9,3.4-6.5,4c0.6,1.8,3,7.4,11.3,25.2c4.3-7.6,6.5-15.9,6.5-24.5
			C386.3,507.3,385.8,504.1,385,501.2z M377.8,485.6c-2.2-3.1-4.8-3.5-6.7-3.5c-2.4,0-3.9,2.3-4.5,7
			C370.4,487.1,374.2,485.9,377.8,485.6z M370.8,576.8c-2.8-0.3-6-0.4-9.5-0.4c-16.2,0-32.4,2.1-48,6.2
			c-15.7,4.3-29.3,9.7-40.4,16.2c-11.1,6.4-20,13.4-26.6,20.8l0,0l0,0c-3.3,3.6-5.7,7.4-7.3,11.2c-1.6,3.8-2.4,7.5-2.4,11
			c0,6.8,2.6,12.3,7.9,17.1c5.3,4.7,12.9,7.2,22.6,7.2c11.9,0,23.8-2.3,35.1-6.8c11.4-4.6,22.7-11.7,33.5-21.2
			c20.2-17.9,33.5-38.4,39.6-60.8C373.8,577.1,372.4,577,370.8,576.8z"/>
	</g>
</g>
<g id="Grid" class="st0">
	<rect x="2.8" class="st6" width="1024" height="1024"/>
	<rect y="195.6" class="st7" width="1024" height="632.9"/>
	<line class="st6" x1="0" y1="0" x2="1024" y2="1024"/>
	<line class="st6" x1="1024" y1="0" x2="0" y2="1024"/>
	<circle class="st6" cx="512" cy="512" r="512"/>
	<circle class="st6" cx="513" cy="511" r="256"/>
</g>
</svg>
